<?xml version="1.0" encoding="UTF-8" standalone="no"?>
<svg
   xmlns:dc="http://purl.org/dc/elements/1.1/"
   xmlns:cc="http://creativecommons.org/ns#"
   xmlns:rdf="http://www.w3.org/1999/02/22-rdf-syntax-ns#"
   xmlns:svg="http://www.w3.org/2000/svg"
   xmlns="http://www.w3.org/2000/svg"
   xmlns:sodipodi="http://sodipodi.sourceforge.net/DTD/sodipodi-0.dtd"
   xmlns:inkscape="http://www.inkscape.org/namespaces/inkscape"
   inkscape:version="1.0beta1 (32d4812, 2019-09-19)"
   sodipodi:docname="arrow-right.svg"
   xml:space="preserve"
   style="enable-background:new 0 0 438.533 438.533;"
   viewBox="0 0 438.533 438.533"
   height="438.533px"
   width="438.533px"
   y="0px"
   x="0px"
   id="Capa_1"
   version="1.1"><metadata
   id="metadata872">
  <rdf:RDF>
    <cc:Work
       rdf:about="">
      <dc:format>image/svg+xml</dc:format>
      <dc:type
         rdf:resource="http://purl.org/dc/dcmitype/StillImage" />
    </cc:Work>
  </rdf:RDF>
</metadata>
<defs
   id="defs870" />
<sodipodi:namedview
   inkscape:current-layer="Capa_1"
   inkscape:window-maximized="0"
   inkscape:window-y="23"
   inkscape:window-x="0"
   inkscape:cy="560"
   inkscape:cx="400"
   inkscape:zoom="0.35"
   showgrid="false"
   id="namedview868"
   inkscape:window-height="790"
   inkscape:window-width="1440"
   inkscape:pageshadow="2"
   inkscape:pageopacity="0"
   guidetolerance="10"
   gridtolerance="10"
   objecttolerance="10"
   borderopacity="1"
   inkscape:document-rotation="0"
   bordercolor="#666666"
   pagecolor="#ffffff" />

<g
   style="fill:#007bff;fill-opacity:1"
   id="g835">
	<path
   style="fill:#007bff;fill-opacity:1"
   id="path833"
   d="M409.133,109.203c-19.608-33.592-46.205-60.189-79.798-79.796C295.736,9.801,259.058,0,219.273,0   c-39.781,0-76.47,9.801-110.063,29.407c-33.595,19.604-60.192,46.201-79.8,79.796C9.801,142.8,0,179.489,0,219.267   c0,39.78,9.804,76.463,29.407,110.062c19.607,33.592,46.204,60.189,79.799,79.798c33.597,19.605,70.283,29.407,110.063,29.407   s76.47-9.802,110.065-29.407c33.593-19.602,60.189-46.206,79.795-79.798c19.603-33.596,29.403-70.284,29.403-110.062   C438.533,179.485,428.732,142.795,409.133,109.203z M361.733,232.111l-25.978,25.981l-103.35,103.349   c-3.433,3.43-7.714,5.147-12.852,5.147c-5.137,0-9.419-1.718-12.847-5.147l-25.981-25.98c-3.616-3.607-5.424-7.898-5.424-12.847   c0-4.942,1.809-9.227,5.424-12.847l53.962-53.954H91.363c-4.948,0-9.229-1.813-12.847-5.428c-3.615-3.613-5.424-7.898-5.424-12.847   v-36.547c0-4.948,1.809-9.231,5.424-12.847c3.617-3.617,7.898-5.426,12.847-5.426h143.325l-53.962-53.959   c-3.428-3.428-5.14-7.708-5.14-12.847c0-5.141,1.712-9.42,5.14-12.851l25.981-25.981c3.427-3.425,7.71-5.137,12.847-5.137   c5.145,0,9.419,1.711,12.852,5.137l103.35,103.356l25.978,25.981c3.432,3.427,5.144,7.707,5.144,12.847   C366.877,224.404,365.165,228.686,361.733,232.111z" />

</g>

<g
   id="g837">
</g>

<g
   id="g839">
</g>

<g
   id="g841">
</g>

<g
   id="g843">
</g>

<g
   id="g845">
</g>

<g
   id="g847">
</g>

<g
   id="g849">
</g>

<g
   id="g851">
</g>

<g
   id="g853">
</g>

<g
   id="g855">
</g>

<g
   id="g857">
</g>

<g
   id="g859">
</g>

<g
   id="g861">
</g>

<g
   id="g863">
</g>

<g
   id="g865">
</g>

</svg>
