<?xml version="1.0" encoding="UTF-8" standalone="no"?>
<svg
   xmlns:dc="http://purl.org/dc/elements/1.1/"
   xmlns:cc="http://creativecommons.org/ns#"
   xmlns:rdf="http://www.w3.org/1999/02/22-rdf-syntax-ns#"
   xmlns:svg="http://www.w3.org/2000/svg"
   xmlns="http://www.w3.org/2000/svg"
   xmlns:sodipodi="http://sodipodi.sourceforge.net/DTD/sodipodi-0.dtd"
   xmlns:inkscape="http://www.inkscape.org/namespaces/inkscape"
   inkscape:version="1.0beta1 (32d4812, 2019-09-19)"
   sodipodi:docname="meetup.svg"
   version="1.1"
   width="512"
   viewBox="0 0 24 24"
   height="512"
   enable-background="new 0 0 24 24"
   id="Bold">
  <metadata
     id="metadata840">
    <rdf:RDF>
      <cc:Work
         rdf:about="">
        <dc:format>image/svg+xml</dc:format>
        <dc:type
           rdf:resource="http://purl.org/dc/dcmitype/StillImage" />
      </cc:Work>
    </rdf:RDF>
  </metadata>
  <defs
     id="defs838" />
  <sodipodi:namedview
     inkscape:current-layer="Bold"
     inkscape:window-maximized="0"
     inkscape:window-y="23"
     inkscape:window-x="0"
     inkscape:cy="560"
     inkscape:cx="400"
     inkscape:zoom="0.35"
     showgrid="false"
     id="namedview836"
     inkscape:window-height="790"
     inkscape:window-width="1440"
     inkscape:pageshadow="2"
     inkscape:pageopacity="0"
     guidetolerance="10"
     gridtolerance="10"
     objecttolerance="10"
     borderopacity="1"
     inkscape:document-rotation="0"
     bordercolor="#666666"
     pagecolor="#ffffff" />
  <path
     style="fill:#676c72;fill-opacity:1"
     id="path833"
     d="m11.354 4.094c-1.144.068-2.668-2.101-5.241-1.07-2.463.987-2.66 2.852-5.338 11.573-.626 2.04-1.322 3.576-.097 5.154 1.029 1.326 2.867 1.627 4.367.875.388-.194.679-.681 1.068-1.264.316-.634 4.173-10.693 4.173-10.697.45-.903 2.194-.802 1.941.972 0 .581-2.718 7.067-2.718 7.391-.327 2.291 2.681 2.517 3.591.389.097-.097.485-.972 1.262-2.528 3.811-7.637 2.375-4.662 3.494-6.905.388-.486.776-.778 1.068-.778.485 0 .776.389.679 1.07 0 .782-2.872 5.91-3.688 8.363-.409 2.049.655 3.877 2.426 4.862.55.367 3.892.989 4.95.194 1.103-.368.793-1.961-.097-2.139-.968-.485-1.444-.073-2.718-.583-2.801-1.123 3.471-10.398 3.107-13.323-.291-1.848-1.262-2.723-3.203-2.82-1.156 0-1.281.526-1.843.464s-1.729-1.396-3.396-1.375-2.887 2.121-3.787 2.175z" />
</svg>
