<?xml version="1.0" encoding="UTF-8" standalone="no"?>
<svg
   xmlns:dc="http://purl.org/dc/elements/1.1/"
   xmlns:cc="http://creativecommons.org/ns#"
   xmlns:rdf="http://www.w3.org/1999/02/22-rdf-syntax-ns#"
   xmlns:svg="http://www.w3.org/2000/svg"
   xmlns="http://www.w3.org/2000/svg"
   xmlns:sodipodi="http://sodipodi.sourceforge.net/DTD/sodipodi-0.dtd"
   xmlns:inkscape="http://www.inkscape.org/namespaces/inkscape"
   inkscape:version="1.0beta1 (32d4812, 2019-09-19)"
   sodipodi:docname="devfest.svg"
   id="svg1111"
   version="1.1"
   viewBox="0 0 579 290"
   stroke-miterlimit="10"
   fill-rule="evenodd"
   clip-rule="evenodd">
  <metadata
     id="metadata1117">
    <rdf:RDF>
      <cc:Work
         rdf:about="">
        <dc:format>image/svg+xml</dc:format>
        <dc:type
           rdf:resource="http://purl.org/dc/dcmitype/StillImage" />
      </cc:Work>
    </rdf:RDF>
  </metadata>
  <defs
     id="defs1115" />
  <sodipodi:namedview
     inkscape:current-layer="svg1111"
     inkscape:window-maximized="0"
     inkscape:window-y="23"
     inkscape:window-x="0"
     inkscape:cy="170.53855"
     inkscape:cx="259.6345"
     inkscape:zoom="1.3625773"
     showgrid="false"
     id="namedview1113"
     inkscape:window-height="790"
     inkscape:window-width="1440"
     inkscape:pageshadow="2"
     inkscape:pageopacity="0"
     guidetolerance="10"
     gridtolerance="10"
     objecttolerance="10"
     borderopacity="1"
     inkscape:document-rotation="0"
     bordercolor="#666666"
     pagecolor="#ffffff" />
  <path
     id="path833"
     transform="matrix(0 -.94936118 -.94936118 0 546.2397316991 149.85171133416)"
     stroke-width=".37"
     stroke="#a8dab5"
     fill="none"
     d="m-4.05 4.05h8.1" />
  <path
     id="path835"
     transform="matrix(0 -.94936118 -.94936118 0 544.29449064128 140.96094388346)"
     stroke-width=".37"
     stroke="#a8dab5"
     fill="none"
     d="m-2 2h4" />
  <ellipse
     id="ellipse837"
     transform="matrix(-.94936118 0 0 .94936118 542.39576828128 146.00679855516)"
     stroke-width=".37"
     stroke="#a8dab5"
     ry="1.657"
     rx="1.658"
     fill="none"
     cy="-1.657" />
  <path
     id="path839"
     transform="matrix(.94936118 0 0 .94936118 481.13539005824 102.07131250594)"
     fill-rule="nonzero"
     fill="#fde293"
     d="m0-30.211c-3.297 0-5.97 6.763-5.97 15.106 0 8.342 2.673 15.105 5.97 15.105s5.97-6.763 5.97-15.105c0-8.343-2.673-15.106-5.97-15.106m0 .5c2.642 0 5.47 5.869 5.47 14.606s-2.828 14.605-5.47 14.605-5.47-5.868-5.47-14.605 2.828-14.606 5.47-14.606" />
  <path
     id="path841"
     transform="matrix(.94936118 0 0 .94936118 467.5851579361 82.95108340462)"
     stroke-width=".5"
     stroke="#fde293"
     fill="none"
     d="m0 0h28.609" />
  <path
     id="path843"
     transform="matrix(.94936118 0 0 .94936118 481.13539005824 102.07131250594)"
     fill-rule="nonzero"
     fill="#fde293"
     d="m0-30.211c-8.343 0-15.106 6.763-15.106 15.106 0 8.342 6.763 15.105 15.106 15.105 8.342 0 15.105-6.763 15.105-15.105 0-8.343-6.763-15.106-15.105-15.106m0 .5c8.053 0 14.605 6.552 14.605 14.606 0 8.053-6.552 14.605-14.605 14.605-8.054 0-14.606-6.552-14.606-14.605 0-8.054 6.552-14.606 14.606-14.606" />
  <path
     id="path845"
     transform="matrix(.94936118 0 0 .94936118 467.6706004423 92.51124542334)"
     stroke-width=".5"
     stroke="#fde293"
     fill="none"
     d="m0 0h28.429" />
  <path
     id="path847"
     transform="matrix(.94936118 0 0 .94936118 564.16082269396 187.2783771333)"
     fill-rule="nonzero"
     fill="#fad2cf"
     d="m0 20.912-12.073-20.912-12.073 20.912" />
  <path
     id="path849"
     transform="matrix(-.94936118 0 0 .94936118 352.2947362369 97.28938024228)"
     fill="#fde293"
     d="m187.618 103.503h9.244v3.484h-9.244z" />
  <path
     id="path851"
     stroke-width=".94936118"
     fill="#fad2cf"
     d="m252.79599789943 9.93201254222h13.41827091812v33.10802274068h-13.41827091812z" />
  <path
     id="path853"
     transform="matrix(-.94936118 0 0 .94936118 993.9964386343 35.25337393518)"
     fill="#aecbfa"
     d="m523.13702 120.481h14.135v34.873001h-14.135z" />
  <path
     id="path855"
     transform="matrix(-.94936118 0 0 .94936118 479.37527443052 174.31674894276)"
     stroke-width=".5"
     stroke="#4285f4"
     fill="none"
     d="m-9.596 0h9.596" />
  <path
     id="path857"
     transform="matrix(-.94936118 0 0 .94936118 479.37527443052 167.22407156698)"
     stroke-width=".5"
     stroke="#4285f4"
     fill="none"
     d="m-9.596 0h9.596" />
  <path
     id="path859"
     stroke-width=".94936118"
     fill="#fad2cf"
     d="m85.10367765416 109.26841011791h16.58344109224v33.1070733795h-16.58344109224z" />
  <path
     id="path861"
     transform="matrix(.94936118 0 0 .94936118 54.10086427949 21.7203252504)"
     fill-rule="nonzero"
     fill="#fbbc04"
     d="m0 12.47h34.873c0-6.887-5.583-12.47-12.47-12.47h-9.933c-6.887 0-12.47 5.583-12.47 12.47" />
  <path
     id="path863"
     stroke-width=".94936118"
     fill="#fde293"
     d="m22.08033571986 229.05026810394h28.55393621086v33.1070733795h-28.55393621086z" />
  <path
     id="path865"
     transform="matrix(.94936118 0 0 .94936118 145.70804730182 42.22728622734)"
     fill-rule="nonzero"
     fill="#aecbfa"
     d="m0-34.874 20.134 34.874v-34.874z" />
  <path
     id="path867"
     transform="matrix(.94936118 0 0 .94936118 178.81606909314 273.00664104848)"
     fill-rule="nonzero"
     fill="#4285f4"
     d="m0-10.067-17.437-10.067-17.437 30.201z" />
  <path
     id="path869"
     transform="matrix(-.94936118 0 0 .94936118 214.4237588714 122.0050492024)"
     fill="#ea4335"
     d="m113.814 87.869003h11.627v8.718h-11.627z" />
  <path
     id="path871"
     transform="matrix(-.67129993591 -.67129993591 -.67129993591 .67129993591 556.83745055144 31.34143625687)"
     fill="#4285f4"
     d="m-4.502 1.865h8.886v8.719h-8.886z" />
  <path
     id="path873"
     transform="matrix(-.94936118 0 0 .94936118 1118.2298426491 217.53546730108)"
     fill="#4285f4"
     d="m591.19 37.556h8.886v8.718h-8.886z" />
  <path
     id="path875"
     transform="matrix(-.94936118 0 0 .94936118 692.3843917483 166.32312780716)"
     fill="#ea4335"
     d="m366.996 64.528h8.718v8.718h-8.718z" />
  <path
     id="path877"
     transform="matrix(-.94936118 0 0 .94936118 1104.0273993963 -132.06678723392)"
     fill="#ea4335"
     d="m582.34399 221.681h11.625v8.718h-11.625z" />
  <path
     id="path879"
     transform="matrix(.94936118 0 0 .94936118 429.30881388086 279.34077884144)"
     fill-rule="nonzero"
     fill="#fbbc04"
     d="m0-23.601-12.33 12.33-8.219-8.22-6.165 6.164 8.22 8.22c5.107 5.107 13.387 5.107 18.494 0s5.107-13.387 0-18.494" />
  <path
     id="path881"
     transform="matrix(-.67129993591 -.67129993591 -.67129993591 .67129993591 265.67122472898 229.18602770204)"
     fill-rule="nonzero"
     fill="#a8dab5"
     d="m-32.201 6.451h34.873c0 6.887-5.583 12.47-12.47 12.47h-9.933c-6.887 0-12.47-5.583-12.47-12.47" />
  <path
     id="path883"
     stroke-width=".94936118"
     fill="#a8dab5"
     d="m389.46602387862 72.08762886439h33.1070733795v15.00370408872h-33.1070733795z" />
  <circle
     id="circle885"
     transform="matrix(0 -.94936118 -.94936118 0 143.60426292694 228.779701117)"
     stroke-width=".5"
     stroke="#aecbfa"
     r="2.216"
     fill="none"
     cx="-2.216" />
  <path
     id="path887"
     transform="matrix(.94936118 0 0 .94936118 207.29975257668 56.00223214079)"
     fill-rule="nonzero"
     fill="#fde293"
     d="m0-4.432c-1.224 0-2.216.992-2.216 2.216s.992 2.216 2.216 2.216 2.216-.992 2.216-2.216-.992-2.216-2.216-2.216m0 .5c.946 0 1.716.77 1.716 1.716 0 .947-.77 1.716-1.716 1.716s-1.716-.769-1.716-1.716c0-.946.77-1.716 1.716-1.716" />
  <path
     id="path889"
     transform="matrix(.94936118 0 0 .94936118 207.29975257668 64.17518760329)"
     fill-rule="nonzero"
     fill="#fde293"
     d="m0-4.433c-1.224 0-2.216.992-2.216 2.216 0 1.224.992 2.217 2.216 2.217s2.216-.993 2.216-2.217-.992-2.216-2.216-2.216m0 .5c.946 0 1.716.77 1.716 1.716 0 .947-.77 1.717-1.716 1.717s-1.716-.77-1.716-1.717c0-.946.77-1.716 1.716-1.716" />
  <path
     id="path891"
     transform="matrix(.94936118 0 0 .94936118 207.29975257668 47.83117540065)"
     fill-rule="nonzero"
     fill="#fde293"
     d="m0-4.433c-1.224 0-2.216.992-2.216 2.216 0 1.224.992 2.217 2.216 2.217s2.216-.993 2.216-2.217-.992-2.216-2.216-2.216m0 .5c.946 0 1.716.77 1.716 1.716s-.77 1.717-1.716 1.717-1.716-.771-1.716-1.717.77-1.716 1.716-1.716" />
  <path
     id="path893"
     transform="matrix(-.67129993591 -.67129993591 -.67129993591 .67129993591 130.82681080532 173.29143886836)"
     stroke-width=".5"
     stroke="#ea4335"
     fill="none"
     d="m-1.788.741h3.576v3.576h-3.576z" />
  <path
     id="path895"
     transform="matrix(-.67129993591 -.67129993591 -.67129993591 .67129993591 110.72883462472 75.41011767965)"
     fill="#a8dab5"
     d="m-3.599-1.491h2.981v2.981h-2.981z" />
  <path
     id="path897"
     transform="matrix(-.67129993591 -.67129993591 -.67129993591 .67129993591 105.64215742228 70.32353541332)"
     stroke-width=".5"
     stroke="#1e8e3e"
     fill="none"
     d="m-3.599-1.491h2.981v2.981h-2.981z" />
  <path
     id="path899"
     transform="matrix(-.67129993591 -.67129993591 -.67129993591 .67129993591 99.43903147216 64.12088414379)"
     stroke-width=".5"
     stroke="#a8dab5"
     fill="none"
     d="m-3.599-1.491h2.982v2.982h-2.982z" />
  <circle
     id="circle901"
     transform="matrix(0 .94936118 .94936118 0 429.20628287342 32.06190645637)"
     stroke-width=".5"
     stroke="#174ea6"
     r="2.108"
     fill="none"
     cx="2.108" />
  <circle
     id="circle903"
     transform="matrix(0 .94936118 .94936118 0 464.04309137352 136.5587560918)"
     stroke-width=".5"
     stroke="#174ea6"
     r="2.108"
     fill="none"
     cx="2.108" />
  <path
     id="path905"
     transform="matrix(0 .94936118 .94936118 0 421.67025382658 196.5393954442)"
     fill-rule="nonzero"
     fill="#fde293"
     d="m3.396-3.396c-1.875 0-3.396 1.521-3.396 3.396 0 1.876 1.521 3.396 3.396 3.396 1.876 0 3.396-1.52 3.396-3.396 0-1.875-1.52-3.396-3.396-3.396" />
  <path
     id="path907"
     transform="matrix(.94936118 0 0 .94936118 492.60841991854 238.13660490708)"
     stroke-width=".5"
     stroke="#e37400"
     fill="none"
     d="m0 17.437h4.122c4.815 0 8.718-3.903 8.718-8.718s-3.903-8.719-8.718-8.719" />
  <path
     id="path909"
     transform="matrix(.94936118 0 0 .94936118 392.20398152174 215.7449721156)"
     stroke-width=".5"
     stroke="#aecbfa"
     fill="none"
     d="m0 6.352-6.351-6.352-6.352 6.352" />
  <path
     id="path911"
     transform="matrix(.94936118 0 0 .94936118 290.6669552372 83.03158923269)"
     stroke-width=".5"
     stroke="#aecbfa"
     fill="none"
     d="m0-9.095 9.095 9.095 9.095-9.095" />
  <path
     id="path913"
     transform="matrix(-.67129993591 .67129993591 .67129993591 .67129993591 549.33369978472 135.3103461401)"
     stroke-width=".5"
     stroke="#ea4335"
     fill="none"
     d="m-3.013-21.467h9.871c4.816 0 8.719 3.903 8.719 8.719.001 4.814-3.903 8.718-8.718 8.718h-15.436" />
  <path
     id="path915"
     transform="matrix(-.6712657589 .67133316355 .67133316355 .6712657589 548.04161921874 132.4812498237)"
     stroke-width=".5"
     stroke="#ea4335"
     fill="none"
     d="m-11.988-4.966h14.045" />
  <path
     id="path917"
     transform="matrix(-.67132746738 .67127240443 .67127240443 .67132746738 546.25017467208 130.03474606284)"
     stroke-width=".5"
     stroke="#ea4335"
     fill="none"
     d="m-14.834-6.144h17.379" />
  <path
     id="path919"
     transform="matrix(-.67129993591 .67129993591 .67129993591 .67129993591 542.447033785 126.75565254712)"
     stroke-width=".5"
     stroke="#ea4335"
     fill="none"
     d="m-12.558-5.202h14.713" />
  <path
     id="path921"
     transform="matrix(0 -.94936118 -.94936118 0 46.93575064568 89.49702367684)"
     stroke-width=".5"
     stroke="#4285f4"
     fill="none"
     d="m-7.023 7.023h14.046" />
  <path
     id="path923"
     transform="matrix(0 -.94936118 -.94936118 0 44.40427905921 91.0796087639)"
     stroke-width=".5"
     stroke="#4285f4"
     fill="none"
     d="m-8.689 8.689h17.378" />
  <path
     id="path925"
     transform="matrix(.94936118 0 0 .94936118 25.05772225258 82.83013479029)"
     stroke-width=".5"
     stroke="#4285f4"
     fill="none"
     d="m0 7.356h7.356v-7.356" />
  <path
     id="path927"
     transform="matrix(.94936118 0 0 .94936118 35.79509213449 91.83814834672)"
     stroke-width=".5"
     stroke="#4285f4"
     fill="none"
     d="m0-24.154c4.815 0 8.718 3.903 8.718 8.718v15.436" />
  <path
     id="path929"
     transform="matrix(.94936118 0 0 .94936118 44.07323681574 67.73026041404)"
     stroke-width=".5"
     stroke="#4285f4"
     fill="none"
     d="m0 9.958c-.003-3.01-1.566-5.937-4.361-7.55-4.17-2.408-9.502-.979-11.909 3.191" />
  <path
     id="path931"
     transform="matrix(-.47052428675 .82455720992 .82455720992 .47052428675 28.70089578083 82.78712872884)"
     stroke-width=".5"
     stroke="#4285f4"
     fill="none"
     d="m-8.873-5.153h11.865" />
  <path
     id="path933"
     transform="matrix(.67129993591 .67129993591 .67129993591 -.67129993591 428.48192029308 202.24220805246)"
     stroke-width=".5"
     stroke="#34a853"
     fill="none"
     d="m3.68-7.885h9.871c4.815 0 8.719 3.904 8.719 8.719s-3.903 8.718-8.718 8.718l-8.534.001" />
  <path
     id="path935"
     transform="matrix(.67129993591 .67129993591 .67129993591 -.67129993591 437.0014875224 200.346333776)"
     stroke-width=".5"
     stroke="#34a853"
     fill="none"
     d="m-.916-2.211h6.254" />
  <path
     id="path937"
     transform="matrix(.67129993591 .67129993591 .67129993591 -.67129993591 433.75657100916 202.4444219838)"
     stroke-width=".5"
     stroke="#34a853"
     fill="none"
     d="m-1.062-2.564h7.253" />
  <path
     id="path939"
     transform="matrix(.67129993591 .67129993591 .67129993591 -.67129993591 427.44996469042 197.14888532176)"
     stroke-width=".5"
     stroke="#34a853"
     fill="none"
     d="m-2.545-6.145h17.379" />
  <path
     id="path941"
     transform="matrix(0 -.94936118 -.94936118 0 224.75470723216 76.88001359464)"
     stroke-width=".5"
     stroke="#fbbc04"
     fill="none"
     d="m-5.265 5.265h10.53" />
  <path
     id="path943"
     transform="matrix(0 -.94936118 -.94936118 0 219.63859983314 74.66467928111)"
     stroke-width=".5"
     stroke="#fbbc04"
     fill="none"
     d="m-4.266 4.266h8.532" />
  <path
     id="path945"
     transform="matrix(0 -.94936118 -.94936118 0 215.94558484294 74.18999869111)"
     stroke-width=".5"
     stroke="#fbbc04"
     fill="none"
     d="m-4.766 4.766h9.532" />
  <path
     id="path947"
     transform="matrix(0 -.94936118 -.94936118 0 215.57628334392 70.39255397111)"
     stroke-width=".5"
     stroke="#fbbc04"
     fill="none"
     d="m-8.766 8.766h17.532" />
  <path
     id="path949"
     transform="matrix(-.24685764083 -.91670505413 -.91670505413 .24685764083 206.47190962772 76.73675499258)"
     stroke-width=".5"
     stroke="#fbbc04"
     fill="none"
     d="m-6.571 5.036h10.43" />
  <path
     id="path951"
     transform="matrix(.94936118 0 0 .94936118 203.477624466 88.03102014268)"
     stroke-width=".5"
     stroke="#fbbc04"
     fill="none"
     d="m0-4.242c.988 3.73 4.387 6.48 8.428 6.48 4.815 0 8.718-3.903 8.718-8.718" />
  <path
     id="path953"
     transform="matrix(-.94936118 0 0 .94936118 85.4293085389 188.37299057384)"
     stroke-width=".5"
     stroke="#fff"
     fill="none"
     d="m44.393002 49.977001h14.594v14.594h-14.594z" />
  <path
     id="path955"
     transform="matrix(-.94936118 0 0 .94936118 187.21791553614 231.38854563964)"
     fill="#a8dab5"
     d="m98.001999 27.322001h14.594v14.594h-14.594z" />
  <path
     id="path957"
     transform="matrix(-.67129993591 -.67129993591 -.67129993591 .67129993591 87.17423438774 253.79916565472)"
     stroke-width=".5"
     stroke="#fff"
     fill="none"
     d="m-18.653 7.727h21.853" />
  <path
     id="path959"
     transform="matrix(.67129993591 -.67129993591 -.67129993591 -.67129993591 87.20746202904 274.7240354231)"
     stroke-width=".5"
     stroke="#fff"
     fill="none"
     d="m-3.215 7.762h21.953" />
  <path
     id="path961"
     transform="matrix(0 -.94936118 -.94936118 0 357.45356488902 19.53698440863)"
     fill-rule="nonzero"
     fill="#fde293"
     d="m-10.492-10.493c5.794 0 10.492 4.698 10.492 10.492 0 5.795-4.698 10.493-10.492 10.493-5.795 0-10.493-4.698-10.493-10.493 0-5.794 4.698-10.492 10.493-10.492" />
  <path
     id="path963"
     transform="matrix(.94936118 0 0 .94936118 354.64155707386 25.07062085462)"
     stroke-width=".5"
     stroke="#f9ab00"
     fill="none"
     d="m0 9.649 8.356-4.825-8.356-4.824z" />
  <path
     id="path965"
     transform="matrix(0 .94936118 .94936118 0 330.43759378976 264.1623922956)"
     stroke-width=".5"
     stroke="#aecbfa"
     fill="none"
     d="m-6.345-6.345h12.69" />
  <path
     id="path967"
     transform="matrix(.94936118 0 0 .94936118 318.39020041556 264.1623922956)"
     stroke-width=".5"
     stroke="#aecbfa"
     fill="none"
     d="m0 0h12.69" />
  <path
     id="path969"
     transform="matrix(.94936118 0 0 .94936118 112.0161683848 135.7612927006)"
     fill-rule="nonzero"
     fill="#ea4335"
     d="m0-16.759h-20.423v12.58h16.244l4.179 4.179v-4.179zm-.5.5v15.052l-3.325-3.325-.147-.147h-.207-15.744v-11.58z" />
  <path
     id="path971"
     transform="matrix(0 .94936118 .94936118 0 112.2535086798 255.00960115922)"
     stroke-width=".5"
     stroke="#34a853"
     fill="none"
     d="m-7.035-7.035h14.07" />
  <path
     id="path973"
     transform="matrix(0 .94936118 .94936118 0 109.71776496802 253.42416798862)"
     stroke-width=".5"
     stroke="#34a853"
     fill="none"
     d="m-8.704-8.704h17.408" />
  <path
     id="path975"
     transform="matrix(.94936118 0 0 .94936118 91.88306584054 261.68740769934)"
     stroke-width=".5"
     stroke="#34a853"
     fill="none"
     d="m0-7.368h5.741v7.368" />
  <path
     id="path977"
     transform="matrix(.94936118 0 0 .94936118 101.09281864772 252.66372968344)"
     stroke-width=".5"
     stroke="#34a853"
     fill="none"
     d="m0 21.754c4.823 0 8.733-3.91 8.733-8.733v-13.021" />
  <path
     id="path979"
     transform="matrix(.94936118 0 0 .94936118 109.38548855502 273.3189808767)"
     stroke-width=".5"
     stroke="#34a853"
     fill="none"
     d="m0-8.736c-.003 3.015-1.569 5.947-4.368 7.563-1.378.795-2.882 1.173-4.367 1.171h-9.701" />
  <path
     id="path981"
     transform="matrix(0 .94936118 .94936118 0 33.621624649 153.93586313052)"
     stroke-width=".5"
     stroke="#a8dab5"
     fill="none"
     d="m7.285-14.652c-3.197 0-5.798 2.601-5.798 5.798 0 3.198 2.601 5.799 5.798 5.799h13.165v10.34" />
  <path
     id="path983"
     transform="matrix(.94936118 0 0 .94936118 39.87573129449 155.34756320518)"
     stroke-width=".5"
     stroke="#34a853"
     fill="none"
     d="m0 5.798c0-3.197 2.601-5.798 5.798-5.798 3.198 0 5.799 2.601 5.799 5.798" />
  <path
     id="path985"
     transform="matrix(.94936118 0 0 .94936118 45.93028221994 191.50873055138)"
     fill-rule="nonzero"
     fill="#a8dab5"
     d="m0-11.199c0 6.185-5.014 11.199-11.199 11.199s-11.199-5.014-11.199-11.199z" />
  <path
     id="path987"
     transform="matrix(.94936118 0 0 .94936118 491.57741367706 17.54959171442)"
     stroke-width=".5"
     stroke="#ea4335"
     fill="none"
     d="m0-4.939c0 2.723-2.216 4.939-4.939 4.939-2.724 0-4.939-2.216-4.939-4.939" />
  <path
     id="path989"
     transform="matrix(-.67129993591 .67129993591 .67129993591 .67129993591 500.00394351074 42.37538657142)"
     stroke-width=".5"
     stroke="#fad2cf"
     fill="none"
     d="m-11.516-4.77c3.726 3.726 9.766 3.726 13.492 0" />
  <path
     id="path991"
     transform="matrix(0 -.94936118 -.94936118 0 493.52455345724 10.91308238563)"
     stroke-width=".5"
     stroke="#ea4335"
     fill="none"
     d="m-2.051-16.041c-2.724 0-4.94 2.216-4.94 4.939 0 2.724 2.216 5.008 4.94 5.008l-13.99 8.145v-8.808" />
  <path
     id="path993"
     stroke-width=".94936118"
     fill="#fff"
     d="m496.43815241227 7.436142h8.36102391226v5.42464978252h-8.36102391226z" />
  <path
     id="path995"
     transform="matrix(-.94936118 0 0 .94936118 215.92469889698 226.00946519376)"
     stroke-width=".5"
     stroke="#a8dab5"
     fill="none"
     d="m-10.827 0h10.827" />
  <path
     id="path997"
     transform="matrix(-.94936118 0 0 .94936118 207.3510180804 226.00946519376)"
     stroke-width=".5"
     stroke="#a8dab5"
     fill="none"
     d="m-4.598 0h4.598" />
  <path
     id="path999"
     transform="matrix(-.67129993591 -.67129993591 -.67129993591 .67129993591 211.96871085992 224.15821089276)"
     fill="#34a853"
     d="m-4.708-1.95h3.9v3.9h-3.9z" />
  <path
     id="path1001"
     transform="matrix(0 .94936118 .94936118 0 202.84060311422 223.35789941802)"
     stroke-width=".5"
     stroke="#fbbc04"
     fill="none"
     d="m-7.023-7.023h14.046" />
  <path
     id="path1003"
     transform="matrix(0 .94936118 .94936118 0 208.53582083304 221.77531433096)"
     stroke-width=".5"
     stroke="#fbbc04"
     fill="none"
     d="m-8.689-8.689h17.378" />
  <path
     id="path1005"
     transform="matrix(.94936118 0 0 .94936118 211.38485373422 230.02431362398)"
     stroke-width=".5"
     stroke="#fbbc04"
     fill="none"
     d="m0-7.356h-7.356v7.356" />
  <path
     id="path1007"
     transform="matrix(.94936118 0 0 .94936118 200.64757878842 221.01677474814)"
     stroke-width=".5"
     stroke="#fbbc04"
     fill="none"
     d="m0 24.154c-4.815 0-8.718-3.903-8.718-8.718v-15.436" />
  <path
     id="path1009"
     transform="matrix(.94936118 0 0 .94936118 192.36914929882 245.12390319188)"
     stroke-width=".5"
     stroke="#fbbc04"
     fill="none"
     d="m0-9.957c.003 3.01 1.566 5.937 4.361 7.55 4.17 2.407 9.502.978 11.909-3.192" />
  <path
     id="path1011"
     transform="matrix(.47052428675 -.82455720992 -.82455720992 -.47052428675 213.47249896904 239.76570869196)"
     stroke-width=".5"
     stroke="#fbbc04"
     fill="none"
     d="m-2.992 5.153h11.865" />
  <path
     id="path1013"
     transform="matrix(.94936118 0 0 .94936118 20.27522037221 92.94605284378)"
     fill-rule="nonzero"
     fill="#fde293"
     d="m0-11.452c-3.163 0-5.726 2.563-5.726 5.726 0 3.162 2.563 5.726 5.726 5.726 3.162 0 5.726-2.564 5.726-5.726 0-3.163-2.564-5.726-5.726-5.726m0 .51c2.876 0 5.215 2.34 5.215 5.216s-2.339 5.215-5.215 5.215-5.216-2.339-5.216-5.215 2.34-5.216 5.216-5.216" />
</svg>
