<?xml version="1.0" encoding="UTF-8" standalone="no"?>
<svg
   xmlns:dc="http://purl.org/dc/elements/1.1/"
   xmlns:cc="http://creativecommons.org/ns#"
   xmlns:rdf="http://www.w3.org/1999/02/22-rdf-syntax-ns#"
   xmlns:svg="http://www.w3.org/2000/svg"
   xmlns="http://www.w3.org/2000/svg"
   xmlns:sodipodi="http://sodipodi.sourceforge.net/DTD/sodipodi-0.dtd"
   xmlns:inkscape="http://www.inkscape.org/namespaces/inkscape"
   height="149"
   width="1150"
   inkscape:version="1.0beta1 (32d4812, 2019-09-19)"
   sodipodi:docname="gdg-jakarta-logo.svg"
   id="svg869"
   version="1.1"
   viewBox="0 0 1150 149"
   stroke-miterlimit="2"
   stroke-linejoin="round"
   fill-rule="evenodd"
   clip-rule="evenodd">
  <metadata
     id="metadata875">
    <rdf:RDF>
      <cc:Work
         rdf:about="">
        <dc:format>image/svg+xml</dc:format>
        <dc:type
           rdf:resource="http://purl.org/dc/dcmitype/StillImage" />
        <dc:title></dc:title>
      </cc:Work>
    </rdf:RDF>
  </metadata>
  <defs
     id="defs873" />
  <sodipodi:namedview
     inkscape:current-layer="g865"
     inkscape:window-maximized="0"
     inkscape:window-y="23"
     inkscape:window-x="0"
     inkscape:cy="346.38836"
     inkscape:cx="645.96916"
     inkscape:zoom="0.61931586"
     showgrid="false"
     id="namedview871"
     inkscape:window-height="790"
     inkscape:window-width="1440"
     inkscape:pageshadow="2"
     inkscape:pageopacity="0"
     guidetolerance="10"
     gridtolerance="10"
     objecttolerance="10"
     borderopacity="1"
     inkscape:document-rotation="0"
     bordercolor="#666666"
     pagecolor="#ffffff" />
  <path
     d="M 67.94967,69.317399 114.29715,42.557952 C 125.20464,36.261343 128.94162,22.313246 122.6441,11.406668 116.34658,0.49963501 102.40076,-3.2387198 91.492361,3.0597144 L 11.406141,49.297669 Z"
     fill="#ea4335"
     id="path833"
     inkscape:connector-curvature="0"
     style="opacity:1;fill-rule:nonzero;stroke-width:0.456342;stop-opacity:1" />
  <path
     d="m 102.87325,138.09264 c 7.88194,0 15.54666,-4.09065 19.77102,-11.40627 6.29752,-10.90703 2.56054,-24.85513 -8.34695,-31.151737 L 34.211099,49.297591 C 23.302696,42.996419 9.3568806,46.737968 3.0593591,57.645002 -3.2381624,68.552948 0.49882334,82.499676 11.406313,88.796742 l 80.08622,46.236588 c 3.590957,2.07407 7.512761,3.05931 11.380717,3.05931"
     fill="#4285f4"
     id="path835"
     inkscape:connector-curvature="0"
     style="opacity:1;fill-rule:nonzero;stroke-width:0.456342;stop-opacity:1" />
  <path
     d="m 182.5383,138.09266 c 3.86887,0 7.78885,-0.98524 11.38072,-3.05932 l 80.0853,-46.236586 -55.82433,-20.435457 -47.06576,27.173349 c -10.90749,6.296604 -14.64447,20.244704 -8.34695,31.151744 4.2239,7.31562 11.88953,11.40627 19.77102,11.40627"
     fill="#fbbc04"
     id="path837"
     inkscape:connector-curvature="0"
     style="opacity:1;fill-rule:nonzero;stroke-width:0.456342;stop-opacity:1" />
  <path
     d="m 262.58073,91.855965 c 7.88194,0 15.54666,-4.089282 19.77102,-11.406272 6.29752,-10.907033 2.56054,-24.853762 -8.34741,-31.152196 L 193.91904,3.0595426 c -10.90749,-6.2970652 -24.85331,-2.5609921 -31.15174,8.3469544 -6.29753,10.906577 -2.56008,24.853305 8.34695,31.15174 l 80.08576,46.238411 c 3.59096,2.072249 7.51231,3.059317 11.38072,3.059317"
     fill="#0f9d58"
     id="path839"
     inkscape:connector-curvature="0"
     style="opacity:1;fill-rule:nonzero;stroke-width:0.456342;stop-opacity:1" />
  <g
     fill="#676c72"
     id="g865"
     style="opacity:1;fill-rule:nonzero;stop-opacity:1">
    <path
       d="m 0,200.313 c -17.464,-10.063 -31.333,-23.932 -41.604,-41.604 -10.275,-17.667 -15.408,-37.182 -15.408,-58.552 0,-21.365 5.133,-40.882 15.408,-58.554 C -31.333,23.936 -17.464,10.069 0,0 c 17.46,-10.064 36.567,-15.101 57.321,-15.101 16.227,0 31.482,2.88 45.763,8.629 14.278,5.755 26.041,13.868 35.287,24.346 L 119.572,36.672 C 112.585,28.043 103.648,21.418 92.761,16.795 81.869,12.172 70.158,9.862 57.629,9.862 c -15.616,0 -30.153,3.751 -43.607,11.248 -13.459,7.502 -24.245,18.081 -32.358,31.742 -8.119,13.665 -12.173,29.431 -12.173,47.305 0,17.874 4.054,33.643 12.173,47.304 8.113,13.665 18.953,24.245 32.512,31.743 13.56,7.502 28.044,11.248 43.453,11.248 14.792,0 27.167,-2.312 37.135,-6.934 9.963,-4.623 18.538,-10.733 25.733,-18.337 5.339,-5.749 9.654,-12.683 12.943,-20.802 3.284,-8.113 5.34,-17.103 6.163,-26.964 H 57.937 V 93.069 h 106.012 c 1.026,5.754 1.541,11.094 1.541,16.024 0,13.56 -2.157,26.764 -6.472,39.601 -4.314,12.843 -11.2,24.091 -20.647,33.745 -20.34,21.986 -47.358,32.975 -81.05,32.975 -20.754,0 -39.861,-5.033 -57.321,-15.101"
       transform="matrix(0.45634214,0,0,0.45634214,375.97433,23.452597)"
       id="path841"
       inkscape:connector-curvature="0" />
    <path
       d="m 0,170.729 c 26.089,0 46.79,-7.497 62.097,-22.497 15.302,-14.994 22.959,-35.95 22.959,-62.867 0,-26.912 -7.657,-47.868 -22.959,-62.868 C 46.79,7.502 26.089,0 0,0 H -40.679 V 170.729 Z M -66.566,-24.962 H 0 c 22.598,0 42.321,4.675 59.169,14.022 16.844,9.352 29.787,22.343 38.83,38.984 9.038,16.641 13.56,35.748 13.56,57.321 0,21.572 -4.522,40.678 -13.56,57.32 -9.043,16.642 -21.986,29.638 -38.83,38.984 C 42.321,191.02 22.598,195.691 0,195.691 h -66.566 z"
       transform="matrix(0.45634214,0,0,0.45634214,496.77571,30.202798)"
       id="path843"
       inkscape:connector-curvature="0" />
    <path
       d="m 0,200.313 c -17.465,-10.063 -31.332,-23.932 -41.604,-41.604 -10.275,-17.667 -15.408,-37.182 -15.408,-58.552 0,-21.365 5.133,-40.882 15.408,-58.554 C -31.332,23.936 -17.465,10.069 0,0 c 17.46,-10.064 36.567,-15.101 57.32,-15.101 16.228,0 31.483,2.88 45.765,8.629 14.276,5.755 26.04,13.868 35.285,24.346 L 119.572,36.672 C 112.585,28.043 103.647,21.418 92.761,16.795 81.869,12.172 70.158,9.862 57.629,9.862 c -15.616,0 -30.153,3.751 -43.607,11.248 -13.459,7.502 -24.245,18.081 -32.358,31.742 -8.119,13.665 -12.173,29.431 -12.173,47.305 0,17.874 4.054,33.643 12.173,47.304 8.113,13.665 18.952,24.245 32.512,31.743 13.56,7.502 28.044,11.248 43.453,11.248 14.792,0 27.167,-2.312 37.135,-6.934 9.963,-4.623 18.539,-10.733 25.732,-18.337 5.341,-5.749 9.655,-12.683 12.943,-20.802 3.285,-8.113 5.341,-17.103 6.165,-26.964 H 57.937 V 93.069 h 106.012 c 1.026,5.754 1.541,11.094 1.541,16.024 0,13.56 -2.157,26.764 -6.471,39.601 -4.315,12.843 -11.201,24.091 -20.649,33.745 -20.339,21.986 -47.357,32.975 -81.05,32.975 -20.753,0 -39.86,-5.033 -57.32,-15.101"
       transform="matrix(0.45634214,0,0,0.45634214,583.54596,23.452597)"
       id="path845"
       inkscape:connector-curvature="0" />
    <g
       style="font-style:normal;font-weight:normal;font-size:135.729px;line-height:1.25;font-family:sans-serif;fill:#676c72;fill-opacity:1;stroke:none;stroke-width:3.39321"
       id="text896"
       aria-label="Jakarta">
      <path
         id="path898"
         style="font-style:normal;font-variant:normal;font-weight:normal;font-stretch:normal;font-family:'Google Sans';-inkscape-font-specification:'Google Sans';fill:#676c72;fill-opacity:1;stroke-width:3.39321"
         d="m 735.0388,115.915 q -10.72259,0 -18.73061,-5.83634 -8.00801,-5.97208 -11.2655,-16.694671 l 10.85832,-4.479057 q 4.88624,16.016018 19.13779,16.016018 8.00801,0 12.75852,-5.564885 4.88625,-5.564889 4.88625,-14.658732 v -68.13596 h 11.53696 V 83.74723 q 0,10.179675 -3.80041,17.50904 -3.66468,7.19364 -10.3154,10.99405 -6.515,3.66468 -15.06592,3.66468 z" />
      <path
         id="path900"
         style="font-style:normal;font-variant:normal;font-weight:normal;font-stretch:normal;font-family:'Google Sans';-inkscape-font-specification:'Google Sans';fill:#676c72;fill-opacity:1;stroke-width:3.39321"
         d="m 804.02942,115.915 q -7.60082,0 -13.5729,-2.98603 -5.97207,-2.98604 -9.22957,-8.14374 -3.2575,-5.293436 -3.2575,-11.944157 0,-10.994049 8.27947,-17.101855 8.27947,-6.243534 20.90227,-6.243534 6.24353,0 11.53696,1.35729 5.42917,1.35729 8.27947,3.121767 v -4.207599 q 0,-7.736553 -5.42916,-12.351339 -5.42916,-4.750515 -13.70863,-4.750515 -5.83634,0 -10.72259,2.578851 -4.88624,2.443122 -7.73655,6.922179 l -8.68666,-6.514992 q 4.07187,-6.243534 11.12978,-9.772488 7.19364,-3.528955 15.8803,-3.528955 14.11581,0 22.12382,7.465096 8.14374,7.329366 8.14374,20.087892 v 43.840469 h -10.99405 v -9.90822 h -0.54291 q -2.98604,5.02198 -8.95812,8.55093 -5.97207,3.52895 -13.43717,3.52895 z m 1.08583,-10.17967 q 5.83635,0 10.85832,-2.98604 5.02198,-2.986038 8.00802,-8.008011 2.98603,-5.021973 2.98603,-10.994049 -3.25749,-2.171664 -8.00801,-3.528954 -4.75051,-1.35729 -10.04394,-1.35729 -9.50103,0 -14.38728,3.936141 -4.75051,3.936141 -4.75051,10.179675 0,5.700618 4.34333,9.229568 4.34332,3.52896 10.99404,3.52896 z" />
      <path
         id="path902"
         style="font-style:normal;font-variant:normal;font-weight:normal;font-stretch:normal;font-family:'Google Sans';-inkscape-font-specification:'Google Sans';fill:#676c72;fill-opacity:1;stroke-width:3.39321"
         d="m 854.01162,16.561373 h 11.53697 v 61.078051 l 32.57496,-33.117876 h 14.65873 v 0.542916 l -27.1458,27.417258 27.82444,40.718698 v 0.54292 H 899.75229 L 877.49274,80.489734 865.54859,92.433886 v 21.309454 h -11.53697 z" />
      <path
         id="path904"
         style="font-style:normal;font-variant:normal;font-weight:normal;font-stretch:normal;font-family:'Google Sans';-inkscape-font-specification:'Google Sans';fill:#676c72;fill-opacity:1;stroke-width:3.39321"
         d="m 943.46977,115.915 q -7.60083,0 -13.5729,-2.98603 -5.97208,-2.98604 -9.22957,-8.14374 -3.2575,-5.293436 -3.2575,-11.944157 0,-10.994049 8.27947,-17.101855 8.27947,-6.243534 20.90227,-6.243534 6.24353,0 11.53696,1.35729 5.42916,1.35729 8.27947,3.121767 v -4.207599 q 0,-7.736553 -5.42916,-12.351339 -5.42916,-4.750515 -13.70863,-4.750515 -5.83635,0 -10.72259,2.578851 -4.88625,2.443122 -7.73655,6.922179 l -8.68666,-6.514992 q 4.07187,-6.243534 11.12978,-9.772488 7.19364,-3.528955 15.88029,-3.528955 14.11582,0 22.12383,7.465096 8.14374,7.329366 8.14374,20.087892 v 43.840469 h -10.99405 v -9.90822 h -0.54292 q -2.98603,5.02198 -8.95811,8.55093 -5.97208,3.52895 -13.43717,3.52895 z m 1.08583,-10.17967 q 5.83635,0 10.85832,-2.98604 5.02197,-2.986038 8.00801,-8.008011 2.98604,-5.021973 2.98604,-10.994049 -3.2575,-2.171664 -8.00801,-3.528954 -4.75052,-1.35729 -10.04395,-1.35729 -9.50103,0 -14.38727,3.936141 -4.75052,3.936141 -4.75052,10.179675 0,5.700618 4.34333,9.229568 4.34333,3.52896 10.99405,3.52896 z" />
      <path
         id="path906"
         style="font-style:normal;font-variant:normal;font-weight:normal;font-stretch:normal;font-family:'Google Sans';-inkscape-font-specification:'Google Sans';fill:#676c72;fill-opacity:1;stroke-width:3.39321"
         d="m 993.45199,44.521548 h 10.99401 v 10.994049 h 0.543 q 2.4431,-6.107805 8.2794,-9.50103 5.8364,-3.393226 12.7586,-3.393226 2.986,0 5.0219,0.407188 v 11.808423 q -2.3074,-0.542916 -6.2435,-0.542916 -8.8224,0 -14.3873,5.836347 -5.4291,5.836347 -5.4291,15.201648 v 38.411309 h -11.53701 z m 78.04421,70.307622 q -4.2076,0 -7.8723,-1.35729 -3.529,-1.35729 -5.9721,-3.66468 -2.7146,-2.57885 -4.0719,-5.97208 -1.3573,-3.39322 -1.3573,-8.279467 V 54.972681 h -12.0798 V 44.521548 h 12.0798 V 24.976571 h 11.537 v 19.544977 h 16.8304 v 10.451133 h -16.8304 v 37.732663 q 0,5.700618 2.1717,8.415196 2.5788,2.98604 7.4651,2.98604 3.9361,0 7.6008,-2.30739 v 11.2655 q -2.0359,0.95011 -4.2076,1.35729 -2.0359,0.40719 -5.2934,0.40719 z" />
      <path
         id="path908"
         style="font-style:normal;font-variant:normal;font-weight:normal;font-stretch:normal;font-family:'Google Sans';-inkscape-font-specification:'Google Sans';fill:#676c72;fill-opacity:1;stroke-width:3.39321"
         d="m 1115.2518,115.915 q -7.6008,0 -13.5729,-2.98603 -5.9721,-2.98604 -9.2296,-8.14374 -3.2575,-5.293436 -3.2575,-11.944157 0,-10.994049 8.2795,-17.101855 8.2795,-6.243534 20.9022,-6.243534 6.2436,0 11.537,1.35729 5.4292,1.35729 8.2795,3.121767 v -4.207599 q 0,-7.736553 -5.4292,-12.351339 -5.4291,-4.750515 -13.7086,-4.750515 -5.8364,0 -10.7226,2.578851 -4.8862,2.443122 -7.7366,6.922179 l -8.6866,-6.514992 q 4.0719,-6.243534 11.1298,-9.772488 7.1936,-3.528955 15.8803,-3.528955 14.1158,0 22.1238,7.465096 8.1437,7.329366 8.1437,20.087892 v 43.840469 h -10.994 v -9.90822 h -0.5429 q -2.9861,5.02198 -8.9581,8.55093 -5.9721,3.52895 -13.4372,3.52895 z m 1.0858,-10.17967 q 5.8364,0 10.8583,-2.98604 5.022,-2.986038 8.008,-8.008011 2.9861,-5.021973 2.9861,-10.994049 -3.2575,-2.171664 -8.008,-3.528954 -4.7505,-1.35729 -10.044,-1.35729 -9.501,0 -14.3872,3.936141 -4.7506,3.936141 -4.7506,10.179675 0,5.700618 4.3434,9.229568 4.3433,3.52896 10.994,3.52896 z" />
    </g>
  </g>
</svg>
