<?xml version="1.0" encoding="UTF-8" standalone="no"?>
<!DOCTYPE svg PUBLIC "-//W3C//DTD SVG 1.1//EN" "http://www.w3.org/Graphics/SVG/1.1/DTD/svg11.dtd">
<svg width="100%" height="100%" viewBox="0 0 749 82" version="1.1" xmlns="http://www.w3.org/2000/svg" xmlns:xlink="http://www.w3.org/1999/xlink" xml:space="preserve" xmlns:serif="http://www.serif.com/" style="fill-rule:evenodd;clip-rule:evenodd;stroke-linejoin:round;stroke-miterlimit:2;">
    <g transform="matrix(1,0,0,1,-1422.06,-844.939)">
        <g transform="matrix(1.00309,0,0,0.995972,1264.16,5.32667)">
            <g transform="matrix(3.16056,0,0,3.18315,-3760.18,-185.096)">
                <g>
                    <g transform="matrix(0.369403,0,0,0.369403,791.622,209.743)">
                        <g transform="matrix(0.214906,0,0,0.214906,1389.32,317.578)">
                            <path d="M0,200.035C-17.44,189.985 -31.289,176.137 -41.545,158.489C-51.807,140.847 -56.933,121.357 -56.933,100.017C-56.933,78.682 -51.807,59.193 -41.545,41.546C-31.289,23.903 -17.44,10.055 0,0C17.436,-10.05 36.516,-15.079 57.241,-15.079C73.445,-15.079 88.679,-12.204 102.941,-6.462C117.198,-0.716 128.945,7.387 138.178,17.849L119.405,36.622C112.428,28.005 103.503,21.389 92.631,16.772C81.755,12.156 70.061,9.848 57.548,9.848C41.955,9.848 27.437,13.594 14.002,21.081C0.563,28.572 -10.208,39.137 -18.311,52.778C-26.418,66.425 -30.467,82.168 -30.467,100.017C-30.467,117.867 -26.418,133.614 -18.311,147.257C-10.208,160.903 0.616,171.468 14.156,178.954C27.697,186.446 42.161,190.186 57.548,190.186C72.32,190.186 84.678,187.879 94.632,183.263C104.581,178.646 113.145,172.545 120.329,164.952C125.661,159.211 129.97,152.286 133.254,144.179C136.533,136.077 138.586,127.099 139.409,117.251L57.856,117.251L57.856,92.939L163.721,92.939C164.745,98.685 165.259,104.018 165.259,108.942C165.259,122.483 163.105,135.668 158.797,148.487C154.488,161.311 147.612,172.545 138.178,182.185C117.867,204.141 90.886,215.114 57.241,215.114C36.516,215.114 17.436,210.09 0,200.035" style="fill:rgb(117,117,117);fill-rule:nonzero;"/>
                        </g>
                        <g transform="matrix(0.214906,0,0,0.214906,1446.13,320.752)">
                            <path d="M0,170.49C26.052,170.49 46.725,163.004 62.011,148.025C77.292,133.052 84.938,112.125 84.938,85.245C84.938,58.37 77.292,37.443 62.011,22.465C46.725,7.491 26.052,0 0,0L-40.623,0L-40.623,170.49L0,170.49ZM-66.473,-24.928L0,-24.928C22.566,-24.928 42.262,-20.259 59.087,-10.925C75.907,-1.587 88.832,11.386 97.863,28.005C106.889,44.623 111.403,63.703 111.403,85.245C111.403,106.787 106.889,125.867 97.863,142.485C88.832,159.104 75.907,172.082 59.087,181.416C42.262,190.754 22.566,195.418 0,195.418L-66.473,195.418L-66.473,-24.928Z" style="fill:rgb(117,117,117);fill-rule:nonzero;"/>
                        </g>
                        <g transform="matrix(0.214906,0,0,0.214906,1486.93,317.578)">
                            <path d="M0,200.035C-17.44,189.985 -31.289,176.137 -41.546,158.489C-51.807,140.847 -56.933,121.357 -56.933,100.017C-56.933,78.682 -51.807,59.193 -41.546,41.546C-31.289,23.903 -17.44,10.055 0,0C17.436,-10.05 36.516,-15.079 57.241,-15.079C73.445,-15.079 88.679,-12.204 102.941,-6.462C117.198,-0.716 128.945,7.387 138.178,17.849L119.405,36.622C112.428,28.005 103.504,21.389 92.632,16.772C81.755,12.156 70.061,9.848 57.549,9.848C41.954,9.848 27.437,13.594 14.003,21.081C0.562,28.572 -10.208,39.137 -18.311,52.778C-26.418,66.425 -30.467,82.168 -30.467,100.017C-30.467,117.867 -26.418,133.614 -18.311,147.257C-10.208,160.903 0.615,171.468 14.156,178.954C27.697,186.446 42.161,190.186 57.549,190.186C72.32,190.186 84.679,187.879 94.632,183.263C104.581,178.646 113.145,172.545 120.328,164.952C125.661,159.211 129.97,152.286 133.254,144.179C136.533,136.077 138.587,127.099 139.409,117.251L57.856,117.251L57.856,92.939L163.721,92.939C164.745,98.685 165.26,104.018 165.26,108.942C165.26,122.483 163.105,135.668 158.797,148.487C154.488,161.311 147.612,172.545 138.178,182.185C117.866,204.141 90.886,215.114 57.241,215.114C36.516,215.114 17.436,210.09 0,200.035" style="fill:rgb(117,117,117);fill-rule:nonzero;"/>
                        </g>
                        <g transform="matrix(0.214906,0,0,0.214906,1266.26,348.307)">
                            <path d="M0,14.747L-175.251,-86.432C-183.11,-90.972 -191.691,-93.13 -200.157,-93.13C-217.404,-93.13 -234.177,-84.176 -243.421,-68.166C-257.202,-44.296 -249.023,-13.776 -225.155,0.003L-49.903,101.183C-42.045,105.721 -33.463,107.877 -24.999,107.877C-7.75,107.877 9.021,98.926 18.266,82.917C32.047,59.049 23.869,28.527 0,14.747" style="fill:rgb(117,117,117);fill-rule:nonzero;"/>
                        </g>
                        <g transform="matrix(0.214906,0,0,0.214906,1341.36,326.563)">
                            <path d="M0,14.748L-175.25,-86.436C-183.108,-90.972 -191.691,-93.129 -200.156,-93.129C-217.403,-93.129 -234.174,-84.181 -243.419,-68.17C-257.2,-44.303 -249.022,-13.783 -225.153,0L-49.903,101.183C-42.045,105.718 -33.463,107.877 -24.999,107.877C-7.75,107.877 9.021,98.929 18.266,82.916C32.046,59.05 23.869,28.53 0,14.748" style="fill:rgb(117,117,117);fill-rule:nonzero;"/>
                        </g>
                        <g transform="matrix(0.214906,0,0,0.214906,1329.15,361.342)">
                            <path d="M0,-48.629L-81.794,-95.854L-168.311,-45.904C-192.179,-32.124 -200.357,-1.603 -186.576,22.266C-177.334,38.274 -160.559,47.225 -143.312,47.225C-134.846,47.225 -126.267,45.069 -118.408,40.531L22.466,-40.802C14.596,-41.983 6.958,-44.613 0,-48.629" style="fill:rgb(117,117,117);fill-rule:nonzero;"/>
                        </g>
                        <g transform="matrix(0.214906,0,0,0.214906,1230.09,315.175)">
                            <path d="M0,55.721L81.794,102.945L168.312,52.993C192.181,39.213 200.359,8.691 186.578,-15.176C172.797,-39.043 142.279,-47.224 118.409,-33.442L-22.463,47.892C-14.59,49.073 -6.952,51.705 0,55.721" style="fill:rgb(117,117,117);fill-rule:nonzero;"/>
                        </g>
                    </g>
                    <g transform="matrix(0.161237,0,0,0.161237,443.683,117.597)">
                        <g transform="matrix(150.112,0,0,150.112,5693.38,1398.96)">
                            <path d="M0.247,0.016C0.194,0.016 0.148,0.002 0.109,-0.028C0.07,-0.057 0.042,-0.097 0.026,-0.15L0.106,-0.183C0.13,-0.104 0.177,-0.065 0.247,-0.065C0.286,-0.065 0.318,-0.079 0.342,-0.106C0.365,-0.133 0.377,-0.169 0.377,-0.214L0.377,-0.716L0.462,-0.716L0.462,-0.221C0.462,-0.171 0.453,-0.128 0.435,-0.093C0.416,-0.057 0.391,-0.03 0.359,-0.012C0.326,0.007 0.289,0.016 0.247,0.016Z" style="fill:rgb(117,117,117);fill-rule:nonzero;"/>
                        </g>
                        <g transform="matrix(150.112,0,0,150.112,5771.44,1398.96)">
                            <path d="M0.298,0.016C0.248,0.016 0.203,0.004 0.163,-0.02C0.123,-0.044 0.092,-0.077 0.07,-0.118C0.047,-0.159 0.036,-0.205 0.036,-0.255C0.036,-0.305 0.047,-0.351 0.07,-0.392C0.092,-0.433 0.123,-0.466 0.163,-0.49C0.203,-0.514 0.248,-0.526 0.298,-0.526C0.348,-0.526 0.393,-0.514 0.433,-0.49C0.473,-0.466 0.504,-0.433 0.527,-0.392C0.549,-0.351 0.56,-0.305 0.56,-0.255C0.56,-0.205 0.549,-0.159 0.527,-0.118C0.504,-0.077 0.473,-0.044 0.433,-0.02C0.393,0.004 0.348,0.016 0.298,0.016ZM0.298,-0.061C0.329,-0.061 0.359,-0.069 0.386,-0.085C0.413,-0.1 0.434,-0.123 0.451,-0.152C0.467,-0.181 0.475,-0.216 0.475,-0.255C0.475,-0.294 0.467,-0.329 0.451,-0.358C0.434,-0.387 0.413,-0.41 0.386,-0.426C0.359,-0.441 0.329,-0.449 0.298,-0.449C0.267,-0.449 0.237,-0.441 0.21,-0.426C0.183,-0.41 0.161,-0.387 0.145,-0.358C0.128,-0.329 0.12,-0.294 0.12,-0.255C0.12,-0.216 0.128,-0.181 0.145,-0.152C0.161,-0.123 0.183,-0.1 0.21,-0.085C0.237,-0.069 0.267,-0.061 0.298,-0.061Z" style="fill:rgb(117,117,117);fill-rule:nonzero;"/>
                        </g>
                        <g transform="matrix(150.112,0,0,150.112,5860.9,1398.96)">
                            <path d="M0.287,0.232C0.227,0.232 0.178,0.218 0.139,0.19C0.099,0.162 0.073,0.128 0.06,0.089L0.137,0.056C0.148,0.085 0.167,0.109 0.194,0.128C0.22,0.146 0.251,0.155 0.287,0.155C0.34,0.155 0.381,0.14 0.41,0.109C0.439,0.078 0.453,0.035 0.453,-0.021L0.453,-0.078L0.449,-0.078C0.432,-0.052 0.409,-0.031 0.379,-0.015C0.348,0.002 0.314,0.01 0.275,0.01C0.231,0.01 0.191,-0.001 0.155,-0.024C0.118,-0.047 0.089,-0.078 0.068,-0.119C0.047,-0.16 0.036,-0.206 0.036,-0.258C0.036,-0.309 0.047,-0.356 0.068,-0.397C0.089,-0.438 0.118,-0.469 0.155,-0.492C0.191,-0.515 0.231,-0.526 0.275,-0.526C0.314,-0.526 0.348,-0.518 0.379,-0.502C0.409,-0.485 0.432,-0.464 0.449,-0.437L0.453,-0.437L0.453,-0.51L0.534,-0.51L0.534,-0.02C0.534,0.062 0.511,0.125 0.466,0.168C0.421,0.211 0.361,0.232 0.287,0.232ZM0.287,-0.067C0.318,-0.067 0.345,-0.075 0.371,-0.09C0.396,-0.105 0.416,-0.127 0.431,-0.156C0.446,-0.185 0.453,-0.219 0.453,-0.258C0.453,-0.298 0.446,-0.332 0.431,-0.361C0.416,-0.39 0.396,-0.412 0.371,-0.427C0.345,-0.442 0.318,-0.449 0.287,-0.449C0.256,-0.449 0.228,-0.441 0.203,-0.426C0.178,-0.411 0.158,-0.389 0.143,-0.36C0.128,-0.331 0.12,-0.297 0.12,-0.258C0.12,-0.219 0.128,-0.185 0.143,-0.156C0.158,-0.127 0.178,-0.105 0.203,-0.09C0.228,-0.075 0.256,-0.067 0.287,-0.067Z" style="fill:rgb(117,117,117);fill-rule:nonzero;"/>
                        </g>
                        <g transform="matrix(150.112,0,0,150.112,5952.02,1398.96)">
                            <path d="M0.113,-0.604C0.096,-0.604 0.082,-0.61 0.07,-0.622C0.058,-0.634 0.052,-0.648 0.052,-0.665C0.052,-0.682 0.058,-0.696 0.07,-0.708C0.082,-0.719 0.096,-0.725 0.113,-0.725C0.13,-0.725 0.144,-0.719 0.156,-0.708C0.168,-0.696 0.174,-0.682 0.174,-0.665C0.174,-0.648 0.168,-0.634 0.157,-0.622C0.145,-0.61 0.13,-0.604 0.113,-0.604ZM0.015,0.226C-0.001,0.226 -0.016,0.224 -0.03,0.219L-0.03,0.138C-0.025,0.141 -0.018,0.144 -0.01,0.146C-0.002,0.148 0.005,0.149 0.012,0.149C0.033,0.149 0.048,0.142 0.057,0.13C0.066,0.117 0.071,0.097 0.071,0.072L0.071,-0.51L0.155,-0.51L0.155,0.072C0.155,0.123 0.143,0.162 0.118,0.188C0.093,0.213 0.059,0.226 0.015,0.226Z" style="fill:rgb(117,117,117);fill-rule:nonzero;"/>
                        </g>
                        <g transform="matrix(150.112,0,0,150.112,5985.2,1398.96)">
                            <path d="M0.226,0.016C0.189,0.016 0.155,0.009 0.126,-0.006C0.097,-0.021 0.074,-0.041 0.058,-0.067C0.042,-0.092 0.034,-0.121 0.034,-0.154C0.034,-0.208 0.054,-0.25 0.095,-0.281C0.136,-0.311 0.187,-0.326 0.249,-0.326C0.28,-0.326 0.308,-0.323 0.335,-0.316C0.361,-0.309 0.381,-0.302 0.395,-0.293L0.395,-0.324C0.395,-0.362 0.382,-0.393 0.355,-0.416C0.328,-0.439 0.295,-0.45 0.254,-0.45C0.225,-0.45 0.199,-0.444 0.175,-0.432C0.151,-0.419 0.132,-0.402 0.118,-0.38L0.054,-0.428C0.074,-0.459 0.101,-0.483 0.137,-0.5C0.171,-0.517 0.21,-0.526 0.253,-0.526C0.322,-0.526 0.377,-0.508 0.417,-0.472C0.456,-0.435 0.476,-0.386 0.476,-0.323L0.476,0L0.395,0L0.395,-0.073L0.391,-0.073C0.376,-0.048 0.354,-0.027 0.325,-0.01C0.296,0.007 0.263,0.016 0.226,0.016ZM0.234,-0.059C0.263,-0.059 0.289,-0.066 0.314,-0.081C0.339,-0.096 0.358,-0.115 0.373,-0.14C0.388,-0.165 0.395,-0.192 0.395,-0.221C0.379,-0.232 0.359,-0.24 0.336,-0.247C0.313,-0.254 0.288,-0.257 0.262,-0.257C0.215,-0.257 0.18,-0.247 0.157,-0.228C0.133,-0.209 0.121,-0.184 0.121,-0.153C0.121,-0.125 0.132,-0.102 0.153,-0.085C0.174,-0.068 0.201,-0.059 0.234,-0.059Z" style="fill:rgb(117,117,117);fill-rule:nonzero;"/>
                        </g>
                        <g transform="matrix(150.112,0,0,150.112,6064.9,1398.96)">
                            <path d="M0.063,-0.716L0.148,-0.716L0.148,-0.266L0.388,-0.51L0.496,-0.51L0.496,-0.506L0.296,-0.304L0.501,-0.004L0.501,0L0.4,0L0.236,-0.245L0.148,-0.157L0.148,0L0.063,0L0.063,-0.716Z" style="fill:rgb(117,117,117);fill-rule:nonzero;"/>
                        </g>
                        <g transform="matrix(150.112,0,0,150.112,6139.21,1398.96)">
                            <path d="M0.226,0.016C0.189,0.016 0.155,0.009 0.126,-0.006C0.097,-0.021 0.074,-0.041 0.058,-0.067C0.042,-0.092 0.034,-0.121 0.034,-0.154C0.034,-0.208 0.054,-0.25 0.095,-0.281C0.136,-0.311 0.187,-0.326 0.249,-0.326C0.28,-0.326 0.308,-0.323 0.335,-0.316C0.361,-0.309 0.381,-0.302 0.395,-0.293L0.395,-0.324C0.395,-0.362 0.382,-0.393 0.355,-0.416C0.328,-0.439 0.295,-0.45 0.254,-0.45C0.225,-0.45 0.199,-0.444 0.175,-0.432C0.151,-0.419 0.132,-0.402 0.118,-0.38L0.054,-0.428C0.074,-0.459 0.101,-0.483 0.137,-0.5C0.171,-0.517 0.21,-0.526 0.253,-0.526C0.322,-0.526 0.377,-0.508 0.417,-0.472C0.456,-0.435 0.476,-0.386 0.476,-0.323L0.476,0L0.395,0L0.395,-0.073L0.391,-0.073C0.376,-0.048 0.354,-0.027 0.325,-0.01C0.296,0.007 0.263,0.016 0.226,0.016ZM0.234,-0.059C0.263,-0.059 0.289,-0.066 0.314,-0.081C0.339,-0.096 0.358,-0.115 0.373,-0.14C0.388,-0.165 0.395,-0.192 0.395,-0.221C0.379,-0.232 0.359,-0.24 0.336,-0.247C0.313,-0.254 0.288,-0.257 0.262,-0.257C0.215,-0.257 0.18,-0.247 0.157,-0.228C0.133,-0.209 0.121,-0.184 0.121,-0.153C0.121,-0.125 0.132,-0.102 0.153,-0.085C0.174,-0.068 0.201,-0.059 0.234,-0.059Z" style="fill:rgb(117,117,117);fill-rule:nonzero;"/>
                        </g>
                        <g transform="matrix(150.112,0,0,150.112,6218.92,1398.96)">
                            <path d="M0.063,-0.51L0.144,-0.51L0.144,-0.429L0.148,-0.429C0.16,-0.459 0.18,-0.482 0.209,-0.499C0.238,-0.516 0.269,-0.524 0.303,-0.524C0.318,-0.524 0.33,-0.523 0.34,-0.521L0.34,-0.434C0.329,-0.437 0.313,-0.438 0.294,-0.438C0.251,-0.438 0.216,-0.424 0.189,-0.395C0.162,-0.366 0.148,-0.329 0.148,-0.283L0.148,0L0.063,0L0.063,-0.51ZM0.638,0.008C0.617,0.008 0.598,0.005 0.581,-0.002C0.563,-0.009 0.548,-0.018 0.536,-0.029C0.523,-0.042 0.513,-0.056 0.506,-0.073C0.499,-0.09 0.496,-0.11 0.496,-0.134L0.496,-0.433L0.407,-0.433L0.407,-0.51L0.496,-0.51L0.496,-0.654L0.581,-0.654L0.581,-0.51L0.705,-0.51L0.705,-0.433L0.581,-0.433L0.581,-0.155C0.581,-0.127 0.586,-0.106 0.597,-0.093C0.61,-0.078 0.628,-0.071 0.652,-0.071C0.671,-0.071 0.69,-0.077 0.708,-0.088L0.708,-0.005C0.698,0 0.688,0.003 0.678,0.005C0.667,0.007 0.654,0.008 0.638,0.008Z" style="fill:rgb(117,117,117);fill-rule:nonzero;"/>
                        </g>
                        <g transform="matrix(150.112,0,0,150.112,6329.25,1398.96)">
                            <path d="M0.226,0.016C0.189,0.016 0.155,0.009 0.126,-0.006C0.097,-0.021 0.074,-0.041 0.058,-0.067C0.042,-0.092 0.034,-0.121 0.034,-0.154C0.034,-0.208 0.054,-0.25 0.095,-0.281C0.136,-0.311 0.187,-0.326 0.249,-0.326C0.28,-0.326 0.308,-0.323 0.335,-0.316C0.361,-0.309 0.381,-0.302 0.395,-0.293L0.395,-0.324C0.395,-0.362 0.382,-0.393 0.355,-0.416C0.328,-0.439 0.295,-0.45 0.254,-0.45C0.225,-0.45 0.199,-0.444 0.175,-0.432C0.151,-0.419 0.132,-0.402 0.118,-0.38L0.054,-0.428C0.074,-0.459 0.101,-0.483 0.137,-0.5C0.171,-0.517 0.21,-0.526 0.253,-0.526C0.322,-0.526 0.377,-0.508 0.417,-0.472C0.456,-0.435 0.476,-0.386 0.476,-0.323L0.476,0L0.395,0L0.395,-0.073L0.391,-0.073C0.376,-0.048 0.354,-0.027 0.325,-0.01C0.296,0.007 0.263,0.016 0.226,0.016ZM0.234,-0.059C0.263,-0.059 0.289,-0.066 0.314,-0.081C0.339,-0.096 0.358,-0.115 0.373,-0.14C0.388,-0.165 0.395,-0.192 0.395,-0.221C0.379,-0.232 0.359,-0.24 0.336,-0.247C0.313,-0.254 0.288,-0.257 0.262,-0.257C0.215,-0.257 0.18,-0.247 0.157,-0.228C0.133,-0.209 0.121,-0.184 0.121,-0.153C0.121,-0.125 0.132,-0.102 0.153,-0.085C0.174,-0.068 0.201,-0.059 0.234,-0.059Z" style="fill:rgb(117,117,117);fill-rule:nonzero;"/>
                        </g>
                    </g>
                </g>
            </g>
        </g>
    </g>
</svg>
