<svg clip-rule="evenodd" fill-rule="evenodd" stroke-linejoin="round" stroke-miterlimit="2" viewBox="0 0 1343 149" xmlns="http://www.w3.org/2000/svg"><g fill-rule="nonzero"><path d="m0 158.995 101.563-58.639c23.902-13.798 32.091-44.363 18.291-68.263-13.8-23.901-44.36-32.093-68.264-18.291l-175.496 101.323z" fill="#ea4335" transform="matrix(.456342144 0 0 .456342144 67.94966968 -3.238719752)"/><path d="m0 208.388c17.272 0 34.068-8.964 43.325-24.995 13.8-23.901 5.611-54.466-18.291-68.264l-175.496-101.321c-23.904-13.808-54.464-5.609-68.264 18.292-13.8 23.903-5.611 54.465 18.291 68.264l175.496 101.32c7.869 4.545 16.463 6.704 24.939 6.704" fill="#4285f4" transform="matrix(.456342144 0 0 .456342144 102.87325144 42.99641896)"/><path d="m0 152.805c8.478 0 17.068-2.159 24.939-6.704l175.494-101.32-122.33-44.781-103.137 59.546c-23.902 13.798-32.091 44.363-18.291 68.264 9.256 16.031 26.054 24.995 43.325 24.995" fill="#fbbc04" transform="matrix(.456342144 0 0 .456342144 182.53829536 68.3612968)"/><path d="m0 208.382c17.272 0 34.068-8.961 43.325-24.995 13.8-23.901 5.611-54.463-18.292-68.265l-175.494-101.323c-23.902-13.799-54.462-5.612-68.264 18.291-13.8 23.9-5.61 54.462 18.291 68.264l175.495 101.324c7.869 4.541 16.462 6.704 24.939 6.704" fill="#0f9d58" transform="matrix(.456342144 0 0 .456342144 262.58073136 -3.237522632)"/><g fill="#676c72"><path d="m0 200.313c-17.464-10.063-31.333-23.932-41.604-41.604-10.275-17.667-15.408-37.182-15.408-58.552 0-21.365 5.133-40.882 15.408-58.554 10.271-17.667 24.14-31.534 41.604-41.603 17.46-10.064 36.567-15.101 57.321-15.101 16.227 0 31.482 2.88 45.763 8.629 14.278 5.755 26.041 13.868 35.287 24.346l-18.799 18.798c-6.987-8.629-15.924-15.254-26.811-19.877-10.892-4.623-22.603-6.933-35.132-6.933-15.616 0-30.153 3.751-43.607 11.248-13.459 7.502-24.245 18.081-32.358 31.742-8.119 13.665-12.173 29.431-12.173 47.305s4.054 33.643 12.173 47.304c8.113 13.665 18.953 24.245 32.512 31.743 13.56 7.502 28.044 11.248 43.453 11.248 14.792 0 27.167-2.312 37.135-6.934 9.963-4.623 18.538-10.733 25.733-18.337 5.339-5.749 9.654-12.683 12.943-20.802 3.284-8.113 5.34-17.103 6.163-26.964h-81.666v-24.346h106.012c1.026 5.754 1.541 11.094 1.541 16.024 0 13.56-2.157 26.764-6.472 39.601-4.314 12.843-11.2 24.091-20.647 33.745-20.34 21.986-47.358 32.975-81.05 32.975-20.754 0-39.861-5.033-57.321-15.101" transform="matrix(.456342144 0 0 .456342144 375.974332 23.452596976)"/><path d="m0 170.729c26.089 0 46.79-7.497 62.097-22.497 15.302-14.994 22.959-35.95 22.959-62.867 0-26.912-7.657-47.868-22.959-62.868-15.307-14.995-36.008-22.497-62.097-22.497h-40.679v170.729zm-66.566-195.691h66.566c22.598 0 42.321 4.675 59.169 14.022 16.844 9.352 29.787 22.343 38.83 38.984 9.038 16.641 13.56 35.748 13.56 57.321 0 21.572-4.522 40.678-13.56 57.32-9.043 16.642-21.986 29.638-38.83 38.984-16.848 9.351-36.571 14.022-59.169 14.022h-66.566z" transform="matrix(.456342144 0 0 .456342144 496.7757112 30.20279752)"/><path d="m0 200.313c-17.465-10.063-31.332-23.932-41.604-41.604-10.275-17.667-15.408-37.182-15.408-58.552 0-21.365 5.133-40.882 15.408-58.554 10.272-17.667 24.139-31.534 41.604-41.603 17.46-10.064 36.567-15.101 57.32-15.101 16.228 0 31.483 2.88 45.765 8.629 14.276 5.755 26.04 13.868 35.285 24.346l-18.798 18.798c-6.987-8.629-15.925-15.254-26.811-19.877-10.892-4.623-22.603-6.933-35.132-6.933-15.616 0-30.153 3.751-43.607 11.248-13.459 7.502-24.245 18.081-32.358 31.742-8.119 13.665-12.173 29.431-12.173 47.305s4.054 33.643 12.173 47.304c8.113 13.665 18.952 24.245 32.512 31.743 13.56 7.502 28.044 11.248 43.453 11.248 14.792 0 27.167-2.312 37.135-6.934 9.963-4.623 18.539-10.733 25.732-18.337 5.341-5.749 9.655-12.683 12.943-20.802 3.285-8.113 5.341-17.103 6.165-26.964h-81.667v-24.346h106.012c1.026 5.754 1.541 11.094 1.541 16.024 0 13.56-2.157 26.764-6.471 39.601-4.315 12.843-11.201 24.091-20.649 33.745-20.339 21.986-47.357 32.975-81.05 32.975-20.753 0-39.86-5.033-57.32-15.101" transform="matrix(.456342144 0 0 .456342144 583.5459616 23.452596976)"/><path d="m.247.016c-.053 0-.099-.014-.138-.044-.039-.029-.067-.069-.083-.122l.08-.033c.024.079.071.118.141.118.039 0 .071-.014.095-.041.023-.027.035-.063.035-.108v-.502h.085v.495c0 .05-.009.093-.027.128-.019.036-.044.063-.076.081-.033.019-.07.028-.112.028z" transform="matrix(135.07523952 0 0 135.07523952 706.5051496 117.64493152)"/><path d="m.298.016c-.05 0-.095-.012-.135-.036s-.071-.057-.093-.098c-.023-.041-.034-.087-.034-.137s.011-.096.034-.137c.022-.041.053-.074.093-.098s.085-.036.135-.036.095.012.135.036.071.057.094.098c.022.041.033.087.033.137s-.011.096-.033.137c-.023.041-.054.074-.094.098s-.085.036-.135.036zm0-.077c.031 0 .061-.008.088-.024.027-.015.048-.038.065-.067.016-.029.024-.064.024-.103s-.008-.074-.024-.103c-.017-.029-.038-.052-.065-.068-.027-.015-.057-.023-.088-.023s-.061.008-.088.023c-.027.016-.049.039-.065.068-.017.029-.025.064-.025.103s.008.074.025.103c.016.029.038.052.065.067.027.016.057.024.088.024z" transform="matrix(135.07523952 0 0 135.07523952 776.7431728 117.64493152)"/><path d="m.287.232c-.06 0-.109-.014-.148-.042-.04-.028-.066-.062-.079-.101l.077-.033c.011.029.03.053.057.072.026.018.057.027.093.027.053 0 .094-.015.123-.046s.043-.074.043-.13v-.057h-.004c-.017.026-.04.047-.07.063-.031.017-.065.025-.104.025-.044 0-.084-.011-.12-.034-.037-.023-.066-.054-.087-.095s-.032-.087-.032-.139c0-.051.011-.098.032-.139s.05-.072.087-.095c.036-.023.076-.034.12-.034.039 0 .073.008.104.024.03.017.053.038.07.065h.004v-.073h.081v.49c0 .082-.023.145-.068.188s-.105.064-.179.064zm0-.299c.031 0 .058-.008.084-.023.025-.015.045-.037.06-.066s.022-.063.022-.102c0-.04-.007-.074-.022-.103s-.035-.051-.06-.066c-.026-.015-.053-.022-.084-.022s-.059.008-.084.023-.045.037-.06.066-.023.063-.023.102.008.073.023.102.035.051.06.066.053.023.084.023z" transform="matrix(135.07523952 0 0 135.07523952 857.2494928 117.64493152)"/><path d="m.113-.604c-.017 0-.031-.006-.043-.018s-.018-.026-.018-.043.006-.031.018-.043c.012-.011.026-.017.043-.017s.031.006.043.017c.012.012.018.026.018.043s-.006.031-.017.043c-.012.012-.027.018-.044.018zm-.098.83c-.016 0-.031-.002-.045-.007v-.081c.005.003.012.006.02.008s.015.003.022.003c.021 0 .036-.007.045-.019.009-.013.014-.033.014-.058v-.582h.084v.582c0 .051-.012.09-.037.116-.025.025-.059.038-.103.038z" transform="matrix(135.07523952 0 0 135.07523952 939.2402416 117.64493152)"/><path d="m.226.016c-.037 0-.071-.007-.1-.022s-.052-.035-.068-.061c-.016-.025-.024-.054-.024-.087 0-.054.02-.096.061-.127.041-.03.092-.045.154-.045.031 0 .059.003.086.01.026.007.046.014.06.023v-.031c0-.038-.013-.069-.04-.092s-.06-.034-.101-.034c-.029 0-.055.006-.079.018-.024.013-.043.03-.057.052l-.064-.048c.02-.031.047-.055.083-.072.034-.017.073-.026.116-.026.069 0 .124.018.164.054.039.037.059.086.059.149v.323h-.081v-.073h-.004c-.015.025-.037.046-.066.063s-.062.026-.099.026zm.008-.075c.029 0 .055-.007.08-.022s.044-.034.059-.059.022-.052.022-.081c-.016-.011-.036-.019-.059-.026s-.048-.01-.074-.01c-.047 0-.082.01-.105.029-.024.019-.036.044-.036.075 0 .028.011.051.032.068s.048.026.081.026z" transform="matrix(135.07523952 0 0 135.07523952 969.0904288 117.64493152)"/><path d="m.063-.716h.085v.45l.24-.244h.108v.004l-.2.202.205.3v.004h-.101l-.164-.245-.088.088v.157h-.085z" transform="matrix(135.07523952 0 0 135.07523952 1040.8158736 117.64493152)"/><path d="m.226.016c-.037 0-.071-.007-.1-.022s-.052-.035-.068-.061c-.016-.025-.024-.054-.024-.087 0-.054.02-.096.061-.127.041-.03.092-.045.154-.045.031 0 .059.003.086.01.026.007.046.014.06.023v-.031c0-.038-.013-.069-.04-.092s-.06-.034-.101-.034c-.029 0-.055.006-.079.018-.024.013-.043.03-.057.052l-.064-.048c.02-.031.047-.055.083-.072.034-.017.073-.026.116-.026.069 0 .124.018.164.054.039.037.059.086.059.149v.323h-.081v-.073h-.004c-.015.025-.037.046-.066.063s-.062.026-.099.026zm.008-.075c.029 0 .055-.007.08-.022s.044-.034.059-.059.022-.052.022-.081c-.016-.011-.036-.019-.059-.026s-.048-.01-.074-.01c-.047 0-.082.01-.105.029-.024.019-.036.044-.036.075 0 .028.011.051.032.068s.048.026.081.026z" transform="matrix(135.07523952 0 0 135.07523952 1107.6780184 117.64493152)"/><path d="m.063-.51h.081v.081h.004c.012-.03.032-.053.061-.07s.06-.025.094-.025c.015 0 .027.001.037.003v.087c-.011-.003-.027-.004-.046-.004-.043 0-.078.014-.105.043s-.041.066-.041.112v.283h-.085zm.575.518c-.021 0-.04-.003-.057-.01-.018-.007-.033-.016-.045-.027-.013-.013-.023-.027-.03-.044s-.01-.037-.01-.061v-.299h-.089v-.077h.089v-.144h.085v.144h.124v.077h-.124v.278c0 .028.005.049.016.062.013.015.031.022.055.022.019 0 .038-.006.056-.017v.083c-.01.005-.02.008-.03.01-.011.002-.024.003-.04.003z" transform="matrix(135.07523952 0 0 135.07523952 1179.4034632 117.64493152)"/><path d="m.226.016c-.037 0-.071-.007-.1-.022s-.052-.035-.068-.061c-.016-.025-.024-.054-.024-.087 0-.054.02-.096.061-.127.041-.03.092-.045.154-.045.031 0 .059.003.086.01.026.007.046.014.06.023v-.031c0-.038-.013-.069-.04-.092s-.06-.034-.101-.034c-.029 0-.055.006-.079.018-.024.013-.043.03-.057.052l-.064-.048c.02-.031.047-.055.083-.072.034-.017.073-.026.116-.026.069 0 .124.018.164.054.039.037.059.086.059.149v.323h-.081v-.073h-.004c-.015.025-.037.046-.066.063s-.062.026-.099.026zm.008-.075c.029 0 .055-.007.08-.022s.044-.034.059-.059.022-.052.022-.081c-.016-.011-.036-.019-.059-.026s-.048-.01-.074-.01c-.047 0-.082.01-.105.029-.024.019-.036.044-.036.075 0 .028.011.051.032.068s.048.026.081.026z" transform="matrix(135.07523952 0 0 135.07523952 1278.6836176 117.64493152)"/></g></g></svg>