<?xml version="1.0" encoding="UTF-8" standalone="no"?>
<svg
   xmlns:dc="http://purl.org/dc/elements/1.1/"
   xmlns:cc="http://creativecommons.org/ns#"
   xmlns:rdf="http://www.w3.org/1999/02/22-rdf-syntax-ns#"
   xmlns:svg="http://www.w3.org/2000/svg"
   xmlns="http://www.w3.org/2000/svg"
   xmlns:sodipodi="http://sodipodi.sourceforge.net/DTD/sodipodi-0.dtd"
   xmlns:inkscape="http://www.inkscape.org/namespaces/inkscape"
   inkscape:version="1.0beta1 (32d4812, 2019-09-19)"
   sodipodi:docname="gdg-jakarta-dark.svg"
   id="svg909"
   style="clip-rule:evenodd;fill-rule:evenodd;stroke-linejoin:round;stroke-miterlimit:2"
   xml:space="preserve"
   version="1.1"
   viewBox="0 0 643 82"
   height="82"
   width="643"><metadata
   id="metadata915">
  <rdf:RDF>
    <cc:Work
       rdf:about="">
      <dc:format>image/svg+xml</dc:format>
      <dc:type
         rdf:resource="http://purl.org/dc/dcmitype/StillImage" />
      <dc:title></dc:title>
    </cc:Work>
  </rdf:RDF>
</metadata>
<defs
   id="defs913">
        
    
            
        
                
            
                    
                    
                
                        
                        
                        
                        
                        
                        
                        
                    </defs>
<sodipodi:namedview
   inkscape:current-layer="text896"
   inkscape:window-maximized="0"
   inkscape:window-y="23"
   inkscape:window-x="0"
   inkscape:cy="178.5669"
   inkscape:cx="443.9158"
   inkscape:zoom="0.96603527"
   showgrid="false"
   id="namedview911"
   inkscape:window-height="790"
   inkscape:window-width="1440"
   inkscape:pageshadow="2"
   inkscape:pageopacity="0"
   guidetolerance="10"
   gridtolerance="10"
   objecttolerance="10"
   borderopacity="1"
   inkscape:document-rotation="0"
   bordercolor="#666666"
   pagecolor="#ffffff" />

    <g
   transform="matrix(0.25168243,0,0,0.25168261,207.07245,12.916112)"
   id="g835"
   style="opacity:1;stop-opacity:1">
                            <path
   d="m 0,200.035 c -17.44,-10.05 -31.289,-23.898 -41.545,-41.546 -10.262,-17.642 -15.388,-37.132 -15.388,-58.472 0,-21.335 5.126,-40.824 15.388,-58.471 C -31.289,23.903 -17.44,10.055 0,0 c 17.436,-10.05 36.516,-15.079 57.241,-15.079 16.204,0 31.438,2.875 45.7,8.617 14.257,5.746 26.004,13.849 35.237,24.311 L 119.405,36.622 C 112.428,28.005 103.503,21.389 92.631,16.772 81.755,12.156 70.061,9.848 57.548,9.848 c -15.593,0 -30.111,3.746 -43.546,11.233 -13.439,7.491 -24.21,18.056 -32.313,31.697 -8.107,13.647 -12.156,29.39 -12.156,47.239 0,17.85 4.049,33.597 12.156,47.24 8.103,13.646 18.927,24.211 32.467,31.697 13.541,7.492 28.005,11.232 43.392,11.232 14.772,0 27.13,-2.307 37.084,-6.923 9.949,-4.617 18.513,-10.718 25.697,-18.311 5.332,-5.741 9.641,-12.666 12.925,-20.773 3.279,-8.102 5.332,-17.08 6.155,-26.928 H 57.856 V 92.939 h 105.865 c 1.024,5.746 1.538,11.079 1.538,16.003 0,13.541 -2.154,26.726 -6.462,39.545 -4.309,12.824 -11.185,24.058 -20.619,33.698 -20.311,21.956 -47.292,32.929 -80.937,32.929 -20.725,0 -39.805,-5.024 -57.241,-15.079"
   style="fill:#757575;fill-rule:nonzero"
   id="path833"
   inkscape:connector-curvature="0" />

                        </g>
<g
   transform="matrix(0.25168243,0,0,0.25168261,273.60423,16.633275)"
   id="g839"
   style="opacity:1;stop-opacity:1">
                            <path
   d="m 0,170.49 c 26.052,0 46.725,-7.486 62.011,-22.465 15.281,-14.973 22.927,-35.9 22.927,-62.78 0,-26.875 -7.646,-47.802 -22.927,-62.78 C 46.725,7.491 26.052,0 0,0 H -40.623 V 170.49 Z M -66.473,-24.928 H 0 c 22.566,0 42.262,4.669 59.087,14.003 16.82,9.338 29.745,22.311 38.776,38.93 9.026,16.618 13.54,35.698 13.54,57.24 0,21.542 -4.514,40.622 -13.54,57.24 -9.031,16.619 -21.956,29.597 -38.776,38.931 C 42.262,190.754 22.566,195.418 0,195.418 h -66.473 z"
   style="fill:#757575;fill-rule:nonzero"
   id="path837"
   inkscape:connector-curvature="0" />

                        </g>
<g
   transform="matrix(0.25168243,0,0,0.25168261,321.38626,12.916112)"
   id="g843"
   style="opacity:1;stop-opacity:1">
                            <path
   d="m 0,200.035 c -17.44,-10.05 -31.289,-23.898 -41.546,-41.546 -10.261,-17.642 -15.387,-37.132 -15.387,-58.472 0,-21.335 5.126,-40.824 15.387,-58.471 C -31.289,23.903 -17.44,10.055 0,0 c 17.436,-10.05 36.516,-15.079 57.241,-15.079 16.204,0 31.438,2.875 45.7,8.617 14.257,5.746 26.004,13.849 35.237,24.311 L 119.405,36.622 C 112.428,28.005 103.504,21.389 92.632,16.772 81.755,12.156 70.061,9.848 57.549,9.848 c -15.595,0 -30.112,3.746 -43.546,11.233 -13.441,7.491 -24.211,18.056 -32.314,31.697 -8.107,13.647 -12.156,29.39 -12.156,47.239 0,17.85 4.049,33.597 12.156,47.24 8.103,13.646 18.926,24.211 32.467,31.697 13.541,7.492 28.005,11.232 43.393,11.232 14.771,0 27.13,-2.307 37.083,-6.923 9.949,-4.617 18.513,-10.718 25.696,-18.311 5.333,-5.741 9.642,-12.666 12.926,-20.773 3.279,-8.102 5.333,-17.08 6.155,-26.928 H 57.856 V 92.939 h 105.865 c 1.024,5.746 1.539,11.079 1.539,16.003 0,13.541 -2.155,26.726 -6.463,39.545 -4.309,12.824 -11.185,24.058 -20.619,33.698 -20.312,21.956 -47.292,32.929 -80.937,32.929 -20.725,0 -39.805,-5.024 -57.241,-15.079"
   style="fill:#757575;fill-rule:nonzero"
   id="path841"
   inkscape:connector-curvature="0" />

                        </g>
<g
   transform="matrix(0.25168243,0,0,0.25168261,62.953441,48.903729)"
   id="g847"
   style="opacity:1;stop-opacity:1">
                            <path
   d="M 0,14.747 -175.251,-86.432 c -7.859,-4.54 -16.44,-6.698 -24.906,-6.698 -17.247,0 -34.02,8.954 -43.264,24.964 -13.781,23.87 -5.602,54.39 18.266,68.169 l 175.252,101.18 c 7.858,4.538 16.44,6.694 24.904,6.694 17.249,0 34.02,-8.951 43.265,-24.96 C 32.047,59.049 23.869,28.527 0,14.747"
   style="fill:#757575;fill-rule:nonzero"
   id="path845"
   inkscape:connector-curvature="0" />

                        </g>
<g
   transform="matrix(0.25168243,0,0,0.25168261,150.90515,23.438704)"
   id="g851"
   style="opacity:1;stop-opacity:1">
                            <path
   d="M 0,14.748 -175.25,-86.436 c -7.858,-4.536 -16.441,-6.693 -24.906,-6.693 -17.247,0 -34.018,8.948 -43.263,24.959 -13.781,23.867 -5.603,54.387 18.266,68.17 l 175.25,101.183 c 7.858,4.535 16.44,6.694 24.904,6.694 17.249,0 34.02,-8.948 43.265,-24.961 C 32.046,59.05 23.869,28.53 0,14.748"
   style="fill:#757575;fill-rule:nonzero"
   id="path849"
   inkscape:connector-curvature="0" />

                        </g>
<g
   transform="matrix(0.25168243,0,0,0.25168261,136.60568,64.169393)"
   id="g855"
   style="opacity:1;stop-opacity:1">
                            <path
   d="m 0,-48.629 -81.794,-47.225 -86.517,49.95 c -23.868,13.78 -32.046,44.301 -18.265,68.17 9.242,16.008 26.017,24.959 43.264,24.959 8.466,0 17.045,-2.156 24.904,-6.694 L 22.466,-40.802 C 14.596,-41.983 6.958,-44.613 0,-48.629"
   style="fill:#757575;fill-rule:nonzero"
   id="path853"
   inkscape:connector-curvature="0" />

                        </g>
<g
   transform="matrix(0.25168243,0,0,0.25168261,20.593742,10.10189)"
   id="g859"
   style="opacity:1;stop-opacity:1">
                            <path
   d="m 0,55.721 81.794,47.224 86.518,-49.952 c 23.869,-13.78 32.047,-44.302 18.266,-68.169 -13.781,-23.867 -44.299,-32.048 -68.169,-18.266 L -22.463,47.892 C -14.59,49.073 -6.952,51.705 0,55.721"
   style="fill:#757575;fill-rule:nonzero"
   id="path857"
   inkscape:connector-curvature="0" />

                        </g>

<g
   transform="matrix(0.5728237,0,0,0.5728237,-15.736914,-0.36575704)"
   aria-label="Jakarta"
   id="text896"
   style="font-style:normal;font-weight:normal;font-size:135.729px;line-height:1.25;font-family:sans-serif;opacity:1;fill:#757575;fill-opacity:1;fill-rule:nonzero;stroke:none;stroke-width:3.39321;stop-opacity:1">
  <g
     id="g1097">
    <path
       id="path898"
       style="font-style:normal;font-variant:normal;font-weight:normal;font-stretch:normal;font-family:'Google Sans';-inkscape-font-specification:'Google Sans';fill:#757575;fill-opacity:1;stroke-width:3.39321"
       d="m 735.0388,115.915 q -10.72259,0 -18.73061,-5.83634 -8.00801,-5.97208 -11.2655,-16.694671 l 10.85832,-4.479057 q 4.88624,16.016018 19.13779,16.016018 8.00801,0 12.75852,-5.564885 4.88625,-5.564889 4.88625,-14.658732 v -68.13596 h 11.53696 V 83.74723 q 0,10.179675 -3.80041,17.50904 -3.66468,7.19364 -10.3154,10.99405 -6.515,3.66468 -15.06592,3.66468 z"
       inkscape:connector-curvature="0" />
    <path
       id="path900"
       style="font-style:normal;font-variant:normal;font-weight:normal;font-stretch:normal;font-family:'Google Sans';-inkscape-font-specification:'Google Sans';fill:#757575;fill-opacity:1;stroke-width:3.39321"
       d="m 804.02942,115.915 q -7.60082,0 -13.5729,-2.98603 -5.97207,-2.98604 -9.22957,-8.14374 -3.2575,-5.293436 -3.2575,-11.944157 0,-10.994049 8.27947,-17.101855 8.27947,-6.243534 20.90227,-6.243534 6.24353,0 11.53696,1.35729 5.42917,1.35729 8.27947,3.121767 v -4.207599 q 0,-7.736553 -5.42916,-12.351339 -5.42916,-4.750515 -13.70863,-4.750515 -5.83634,0 -10.72259,2.578851 -4.88624,2.443122 -7.73655,6.922179 l -8.68666,-6.514992 q 4.07187,-6.243534 11.12978,-9.772488 7.19364,-3.528955 15.8803,-3.528955 14.11581,0 22.12382,7.465096 8.14374,7.329366 8.14374,20.087892 v 43.840469 h -10.99405 v -9.90822 h -0.54291 q -2.98604,5.02198 -8.95812,8.55093 -5.97207,3.52895 -13.43717,3.52895 z m 1.08583,-10.17967 q 5.83635,0 10.85832,-2.98604 5.02198,-2.986038 8.00802,-8.008011 2.98603,-5.021973 2.98603,-10.994049 -3.25749,-2.171664 -8.00801,-3.528954 -4.75051,-1.35729 -10.04394,-1.35729 -9.50103,0 -14.38728,3.936141 -4.75051,3.936141 -4.75051,10.179675 0,5.700618 4.34333,9.229568 4.34332,3.52896 10.99404,3.52896 z"
       inkscape:connector-curvature="0" />
    <path
       id="path902"
       style="font-style:normal;font-variant:normal;font-weight:normal;font-stretch:normal;font-family:'Google Sans';-inkscape-font-specification:'Google Sans';fill:#757575;fill-opacity:1;stroke-width:3.39321"
       d="m 854.01162,16.561373 h 11.53697 v 61.078051 l 32.57496,-33.117876 h 14.65873 v 0.542916 l -27.1458,27.417258 27.82444,40.718698 v 0.54292 H 899.75229 L 877.49274,80.489734 865.54859,92.433886 v 21.309454 h -11.53697 z"
       inkscape:connector-curvature="0" />
    <path
       id="path904"
       style="font-style:normal;font-variant:normal;font-weight:normal;font-stretch:normal;font-family:'Google Sans';-inkscape-font-specification:'Google Sans';fill:#757575;fill-opacity:1;stroke-width:3.39321"
       d="m 943.46977,115.915 q -7.60083,0 -13.5729,-2.98603 -5.97208,-2.98604 -9.22957,-8.14374 -3.2575,-5.293436 -3.2575,-11.944157 0,-10.994049 8.27947,-17.101855 8.27947,-6.243534 20.90227,-6.243534 6.24353,0 11.53696,1.35729 5.42916,1.35729 8.27947,3.121767 v -4.207599 q 0,-7.736553 -5.42916,-12.351339 -5.42916,-4.750515 -13.70863,-4.750515 -5.83635,0 -10.72259,2.578851 -4.88625,2.443122 -7.73655,6.922179 l -8.68666,-6.514992 q 4.07187,-6.243534 11.12978,-9.772488 7.19364,-3.528955 15.88029,-3.528955 14.11582,0 22.12383,7.465096 8.14374,7.329366 8.14374,20.087892 v 43.840469 h -10.99405 v -9.90822 h -0.54292 q -2.98603,5.02198 -8.95811,8.55093 -5.97208,3.52895 -13.43717,3.52895 z m 1.08583,-10.17967 q 5.83635,0 10.85832,-2.98604 5.02197,-2.986038 8.00801,-8.008011 2.98604,-5.021973 2.98604,-10.994049 -3.2575,-2.171664 -8.00801,-3.528954 -4.75052,-1.35729 -10.04395,-1.35729 -9.50103,0 -14.38727,3.936141 -4.75052,3.936141 -4.75052,10.179675 0,5.700618 4.34333,9.229568 4.34333,3.52896 10.99405,3.52896 z"
       inkscape:connector-curvature="0" />
    <path
       id="path906"
       style="font-style:normal;font-variant:normal;font-weight:normal;font-stretch:normal;font-family:'Google Sans';-inkscape-font-specification:'Google Sans';fill:#757575;fill-opacity:1;stroke-width:3.39321"
       d="m 993.45199,44.521548 h 10.99401 v 10.994049 h 0.543 q 2.4431,-6.107805 8.2794,-9.50103 5.8364,-3.393226 12.7586,-3.393226 2.986,0 5.0219,0.407188 v 11.808423 q -2.3074,-0.542916 -6.2435,-0.542916 -8.8224,0 -14.3873,5.836347 -5.4291,5.836347 -5.4291,15.201648 v 38.411309 h -11.53701 z m 78.04421,70.307622 q -4.2076,0 -7.8723,-1.35729 -3.529,-1.35729 -5.9721,-3.66468 -2.7146,-2.57885 -4.0719,-5.97208 -1.3573,-3.39322 -1.3573,-8.279467 V 54.972681 h -12.0798 V 44.521548 h 12.0798 V 24.976571 h 11.537 v 19.544977 h 16.8304 v 10.451133 h -16.8304 v 37.732663 q 0,5.700618 2.1717,8.415196 2.5788,2.98604 7.4651,2.98604 3.9361,0 7.6008,-2.30739 v 11.2655 q -2.0359,0.95011 -4.2076,1.35729 -2.0359,0.40719 -5.2934,0.40719 z"
       inkscape:connector-curvature="0" />
    <path
       id="path908"
       style="font-style:normal;font-variant:normal;font-weight:normal;font-stretch:normal;font-family:'Google Sans';-inkscape-font-specification:'Google Sans';fill:#757575;fill-opacity:1;stroke-width:3.39321"
       d="m 1115.2518,115.915 q -7.6008,0 -13.5729,-2.98603 -5.9721,-2.98604 -9.2296,-8.14374 -3.2575,-5.293436 -3.2575,-11.944157 0,-10.994049 8.2795,-17.101855 8.2795,-6.243534 20.9022,-6.243534 6.2436,0 11.537,1.35729 5.4292,1.35729 8.2795,3.121767 v -4.207599 q 0,-7.736553 -5.4292,-12.351339 -5.4291,-4.750515 -13.7086,-4.750515 -5.8364,0 -10.7226,2.578851 -4.8862,2.443122 -7.7366,6.922179 l -8.6866,-6.514992 q 4.0719,-6.243534 11.1298,-9.772488 7.1936,-3.528955 15.8803,-3.528955 14.1158,0 22.1238,7.465096 8.1437,7.329366 8.1437,20.087892 v 43.840469 h -10.994 v -9.90822 h -0.5429 q -2.9861,5.02198 -8.9581,8.55093 -5.9721,3.52895 -13.4372,3.52895 z m 1.0858,-10.17967 q 5.8364,0 10.8583,-2.98604 5.022,-2.986038 8.008,-8.008011 2.9861,-5.021973 2.9861,-10.994049 -3.2575,-2.171664 -8.008,-3.528954 -4.7505,-1.35729 -10.044,-1.35729 -9.501,0 -14.3872,3.936141 -4.7506,3.936141 -4.7506,10.179675 0,5.700618 4.3434,9.229568 4.3433,3.52896 10.994,3.52896 z"
       inkscape:connector-curvature="0" />
  </g>
</g>
</svg>
