<?xml version="1.0" encoding="UTF-8" standalone="no"?>
<svg
   xmlns:dc="http://purl.org/dc/elements/1.1/"
   xmlns:cc="http://creativecommons.org/ns#"
   xmlns:rdf="http://www.w3.org/1999/02/22-rdf-syntax-ns#"
   xmlns:svg="http://www.w3.org/2000/svg"
   xmlns="http://www.w3.org/2000/svg"
   xmlns:sodipodi="http://sodipodi.sourceforge.net/DTD/sodipodi-0.dtd"
   xmlns:inkscape="http://www.inkscape.org/namespaces/inkscape"
   inkscape:version="1.0beta1 (32d4812, 2019-09-19)"
   sodipodi:docname="dsc.svg"
   id="svg1009"
   style="fill-rule:evenodd;clip-rule:evenodd;stroke-linejoin:round;stroke-miterlimit:2;"
   xml:space="preserve"
   version="1.1"
   viewBox="0 0 493 59"
   height="100%"
   width="100%"><metadata
   id="metadata1015">
  <rdf:RDF>
    <cc:Work
       rdf:about="">
      <dc:format>image/svg+xml</dc:format>
      <dc:type
         rdf:resource="http://purl.org/dc/dcmitype/StillImage" />
    </cc:Work>
  </rdf:RDF>
</metadata>
<defs
   id="defs1013">
        
    
            
            
        
                
                
                
                
                
            
                
                
                
                
                
                
                
                
                
                
                
                
                
                
                
                
                
                
                
                
                
                
                
                
                
                
                
                
                
                
                
                
                
                
                
                
                
            </defs>
<sodipodi:namedview
   inkscape:current-layer="svg1009"
   inkscape:window-maximized="0"
   inkscape:window-y="23"
   inkscape:window-x="0"
   inkscape:cy="90.762359"
   inkscape:cx="305.09149"
   inkscape:zoom="1.6595198"
   showgrid="false"
   id="namedview1011"
   inkscape:window-height="790"
   inkscape:window-width="1440"
   inkscape:pageshadow="2"
   inkscape:pageopacity="0"
   guidetolerance="10"
   gridtolerance="10"
   objecttolerance="10"
   borderopacity="1"
   inkscape:document-rotation="0"
   bordercolor="#666666"
   pagecolor="#ffffff" />

    <g
   transform="matrix(0.09736294,-0.16863762,0.19199166,0.11084678,-63.475738,86.609236)"
   id="g835"
   style="opacity:1;stop-opacity:1">
                    <path
   d="M 737,362.283 C 737,339.498 715.94,321 690,321 c -25.94,0 -47,18.498 -47,41.283 v 168.434 c 0,22.785 21.06,41.283 47,41.283 25.94,0 47,-18.498 47,-41.283 z"
   style="fill:#ebebeb"
   id="path833"
   inkscape:connector-curvature="0" />

                </g>
<g
   transform="matrix(-0.09736294,-0.16863762,0.19199166,-0.11084678,6.7769474,185.70921)"
   id="g839"
   style="opacity:1;stop-opacity:1">
                    <path
   d="M 737,362.283 C 737,339.498 715.94,321 690,321 c -25.94,0 -47,18.498 -47,41.283 v 168.434 c 0,22.785 21.06,41.283 47,41.283 25.94,0 47,-18.498 47,-41.283 z"
   style="fill:#ea4335"
   id="path837"
   inkscape:connector-curvature="0" />

                </g>
<g
   transform="matrix(0.09736294,-0.16863762,0.19199166,0.11084678,-127.58441,105.05316)"
   id="g843"
   style="opacity:1;stop-opacity:1">
                    <path
   d="M 737,362.283 C 737,339.498 715.94,321 690,321 c -25.94,0 -47,18.498 -47,41.283 v 168.434 c 0,22.785 21.06,41.283 47,41.283 25.94,0 47,-18.498 47,-41.283 z"
   style="fill:#4285f4"
   id="path841"
   inkscape:connector-curvature="0" />

                </g>
<g
   transform="matrix(-0.09736294,-0.16863762,0.19199166,-0.11084678,70.885507,204.26284)"
   id="g847"
   style="opacity:1;stop-opacity:1">
                    <path
   d="M 737,362.283 C 737,339.498 715.94,321 690,321 c -25.94,0 -47,18.498 -47,41.283 v 168.434 c 0,22.785 21.06,41.283 47,41.283 25.94,0 47,-18.498 47,-41.283 z"
   style="fill:#fbbc04"
   id="path845"
   inkscape:connector-curvature="0" />

                </g>
<g
   transform="matrix(0.09736294,-0.16863762,0.19199166,0.11084678,-63.475738,86.609236)"
   id="g851"
   style="opacity:1;stop-opacity:1">
                    <path
   d="M 737,362.283 C 737,339.498 715.94,321 690,321 c -25.94,0 -47,18.498 -47,41.283 v 168.434 c 0,22.785 21.06,41.283 47,41.283 25.94,0 47,-18.498 47,-41.283 z"
   style="fill:#0f9d58"
   id="path849"
   inkscape:connector-curvature="0" />

                </g>
<g
   transform="matrix(31.398233,0,0,31.398233,131.12135,22.975838)"
   id="g857"
   style="opacity:1;stop-opacity:1">
                    <path
   d="m 0.082,-0.716 h 0.229 c 0.074,0 0.139,0.015 0.194,0.045 0.055,0.03 0.098,0.072 0.128,0.126 0.029,0.055 0.044,0.117 0.044,0.187 0,0.07 -0.015,0.132 -0.044,0.186 C 0.603,-0.117 0.56,-0.075 0.505,-0.045 0.45,-0.015 0.385,0 0.311,0 H 0.082 Z m 0.227,0.609 c 0.08,0 0.143,-0.022 0.188,-0.067 0.045,-0.044 0.067,-0.105 0.067,-0.184 0,-0.078 -0.022,-0.139 -0.067,-0.184 C 0.452,-0.587 0.389,-0.609 0.309,-0.609 H 0.194 v 0.502 z"
   style="fill:#676c72;fill-rule:nonzero"
   id="path855"
   inkscape:connector-curvature="0" />

                </g>
<g
   transform="matrix(31.398233,0,0,31.398233,153.35128,22.975838)"
   id="g861"
   style="opacity:1;stop-opacity:1">
                    <path
   d="M 0.297,0.016 C 0.247,0.016 0.202,0.004 0.163,-0.019 0.123,-0.042 0.092,-0.075 0.07,-0.116 0.047,-0.157 0.036,-0.203 0.036,-0.254 c 0,-0.049 0.011,-0.094 0.033,-0.136 0.021,-0.041 0.051,-0.074 0.09,-0.099 0.039,-0.025 0.083,-0.037 0.132,-0.037 0.051,0 0.096,0.011 0.134,0.034 0.037,0.023 0.066,0.054 0.086,0.093 0.019,0.039 0.029,0.084 0.029,0.133 0,0.009 -0.001,0.021 -0.003,0.035 H 0.146 c 0.004,0.047 0.021,0.084 0.051,0.109 0.029,0.026 0.064,0.039 0.103,0.039 0.031,0 0.059,-0.007 0.082,-0.022 0.023,-0.014 0.041,-0.033 0.055,-0.058 L 0.53,-0.119 C 0.506,-0.077 0.475,-0.044 0.436,-0.02 0.397,0.004 0.351,0.016 0.297,0.016 Z M 0.428,-0.315 C 0.427,-0.333 0.421,-0.351 0.411,-0.369 0.401,-0.386 0.386,-0.401 0.366,-0.413 0.345,-0.425 0.32,-0.431 0.291,-0.431 c -0.035,0 -0.065,0.01 -0.089,0.031 -0.025,0.021 -0.042,0.05 -0.051,0.085 z"
   style="fill:#676c72;fill-rule:nonzero"
   id="path859"
   inkscape:connector-curvature="0" />

                </g>
<g
   transform="matrix(31.398233,0,0,31.398233,171.12015,22.975838)"
   id="g865"
   style="opacity:1;stop-opacity:1">
                    <path
   d="M 0.007,-0.51 H 0.13 l 0.141,0.368 H 0.275 L 0.419,-0.51 h 0.12 L 0.327,0 h -0.11 z"
   style="fill:#676c72;fill-rule:nonzero"
   id="path863"
   inkscape:connector-curvature="0" />

                </g>
<g
   transform="matrix(31.398233,0,0,31.398233,187.78883,22.975838)"
   id="g869"
   style="opacity:1;stop-opacity:1">
                    <path
   d="M 0.297,0.016 C 0.247,0.016 0.202,0.004 0.163,-0.019 0.123,-0.042 0.092,-0.075 0.07,-0.116 0.047,-0.157 0.036,-0.203 0.036,-0.254 c 0,-0.049 0.011,-0.094 0.033,-0.136 0.021,-0.041 0.051,-0.074 0.09,-0.099 0.039,-0.025 0.083,-0.037 0.132,-0.037 0.051,0 0.096,0.011 0.134,0.034 0.037,0.023 0.066,0.054 0.086,0.093 0.019,0.039 0.029,0.084 0.029,0.133 0,0.009 -0.001,0.021 -0.003,0.035 H 0.146 c 0.004,0.047 0.021,0.084 0.051,0.109 0.029,0.026 0.064,0.039 0.103,0.039 0.031,0 0.059,-0.007 0.082,-0.022 0.023,-0.014 0.041,-0.033 0.055,-0.058 L 0.53,-0.119 C 0.506,-0.077 0.475,-0.044 0.436,-0.02 0.397,0.004 0.351,0.016 0.297,0.016 Z M 0.428,-0.315 C 0.427,-0.333 0.421,-0.351 0.411,-0.369 0.401,-0.386 0.386,-0.401 0.366,-0.413 0.345,-0.425 0.32,-0.431 0.291,-0.431 c -0.035,0 -0.065,0.01 -0.089,0.031 -0.025,0.021 -0.042,0.05 -0.051,0.085 z"
   style="fill:#676c72;fill-rule:nonzero"
   id="path867"
   inkscape:connector-curvature="0" />

                </g>
<g
   transform="matrix(31.398233,0,0,31.398233,205.8742,22.975838)"
   id="g873"
   style="opacity:1;stop-opacity:1">
                    <rect
   x="0.064000003"
   y="-0.71600002"
   width="0.11"
   height="0.71600002"
   style="fill:#676c72;fill-rule:nonzero"
   id="rect871" />

                </g>
<g
   transform="matrix(31.398233,0,0,31.398233,213.22138,22.975838)"
   id="g877"
   style="opacity:1;stop-opacity:1">
                    <path
   d="M 0.303,0.016 C 0.252,0.016 0.206,0.004 0.165,-0.02 0.124,-0.043 0.093,-0.076 0.07,-0.117 0.047,-0.158 0.036,-0.204 0.036,-0.255 c 0,-0.051 0.011,-0.097 0.034,-0.138 0.023,-0.041 0.054,-0.074 0.095,-0.098 0.041,-0.023 0.087,-0.035 0.138,-0.035 0.051,0 0.097,0.012 0.138,0.036 0.041,0.024 0.072,0.057 0.095,0.098 0.023,0.041 0.034,0.087 0.034,0.137 0,0.051 -0.011,0.097 -0.034,0.138 C 0.513,-0.076 0.482,-0.043 0.441,-0.02 0.4,0.004 0.354,0.016 0.303,0.016 Z m 0,-0.101 c 0.028,0 0.054,-0.007 0.078,-0.021 C 0.405,-0.119 0.424,-0.139 0.439,-0.165 0.453,-0.19 0.46,-0.22 0.46,-0.255 0.46,-0.29 0.453,-0.32 0.439,-0.345 0.424,-0.37 0.405,-0.39 0.381,-0.404 c -0.024,-0.013 -0.05,-0.02 -0.078,-0.02 -0.028,0 -0.054,0.007 -0.078,0.02 -0.024,0.014 -0.043,0.034 -0.057,0.059 -0.015,0.025 -0.022,0.055 -0.022,0.09 0,0.035 0.007,0.065 0.022,0.09 0.014,0.026 0.033,0.046 0.057,0.059 0.024,0.014 0.05,0.021 0.078,0.021 z"
   style="fill:#676c72;fill-rule:nonzero"
   id="path875"
   inkscape:connector-curvature="0" />

                </g>
<g
   transform="matrix(31.398233,0,0,31.398233,232.12813,22.975838)"
   id="g881"
   style="opacity:1;stop-opacity:1">
                    <path
   d="m 0.06,-0.51 h 0.105 v 0.067 H 0.17 c 0.015,-0.023 0.036,-0.043 0.065,-0.059 0.029,-0.016 0.061,-0.024 0.097,-0.024 0.046,0 0.088,0.012 0.125,0.035 0.037,0.023 0.067,0.055 0.089,0.096 0.021,0.041 0.032,0.088 0.032,0.14 0,0.052 -0.011,0.098 -0.032,0.139 C 0.524,-0.075 0.494,-0.042 0.457,-0.019 0.42,0.004 0.378,0.016 0.332,0.016 0.296,0.016 0.264,0.008 0.235,-0.008 0.206,-0.024 0.185,-0.043 0.17,-0.066 H 0.165 L 0.17,0.005 V 0.216 H 0.06 Z m 0.256,0.425 c 0.027,0 0.052,-0.007 0.075,-0.021 0.023,-0.014 0.042,-0.034 0.056,-0.06 0.014,-0.026 0.021,-0.056 0.021,-0.089 0,-0.033 -0.007,-0.063 -0.021,-0.089 C 0.433,-0.369 0.414,-0.389 0.391,-0.403 0.368,-0.417 0.343,-0.424 0.316,-0.424 c -0.027,0 -0.051,0.007 -0.074,0.021 -0.023,0.014 -0.042,0.034 -0.056,0.059 -0.014,0.026 -0.021,0.056 -0.021,0.089 0,0.033 0.007,0.063 0.021,0.089 0.014,0.026 0.033,0.046 0.056,0.06 0.023,0.014 0.047,0.021 0.074,0.021 z"
   style="fill:#676c72;fill-rule:nonzero"
   id="path879"
   inkscape:connector-curvature="0" />

                </g>
<g
   transform="matrix(31.398233,0,0,31.398233,251.40412,22.975838)"
   id="g885"
   style="opacity:1;stop-opacity:1">
                    <path
   d="M 0.297,0.016 C 0.247,0.016 0.202,0.004 0.163,-0.019 0.123,-0.042 0.092,-0.075 0.07,-0.116 0.047,-0.157 0.036,-0.203 0.036,-0.254 c 0,-0.049 0.011,-0.094 0.033,-0.136 0.021,-0.041 0.051,-0.074 0.09,-0.099 0.039,-0.025 0.083,-0.037 0.132,-0.037 0.051,0 0.096,0.011 0.134,0.034 0.037,0.023 0.066,0.054 0.086,0.093 0.019,0.039 0.029,0.084 0.029,0.133 0,0.009 -0.001,0.021 -0.003,0.035 H 0.146 c 0.004,0.047 0.021,0.084 0.051,0.109 0.029,0.026 0.064,0.039 0.103,0.039 0.031,0 0.059,-0.007 0.082,-0.022 0.023,-0.014 0.041,-0.033 0.055,-0.058 L 0.53,-0.119 C 0.506,-0.077 0.475,-0.044 0.436,-0.02 0.397,0.004 0.351,0.016 0.297,0.016 Z M 0.428,-0.315 C 0.427,-0.333 0.421,-0.351 0.411,-0.369 0.401,-0.386 0.386,-0.401 0.366,-0.413 0.345,-0.425 0.32,-0.431 0.291,-0.431 c -0.035,0 -0.065,0.01 -0.089,0.031 -0.025,0.021 -0.042,0.05 -0.051,0.085 z"
   style="fill:#676c72;fill-rule:nonzero"
   id="path883"
   inkscape:connector-curvature="0" />

                </g>
<g
   transform="matrix(31.398233,0,0,31.398233,269.48948,22.975838)"
   id="g889"
   style="opacity:1;stop-opacity:1">
                    <path
   d="m 0.064,-0.51 h 0.105 v 0.075 h 0.005 c 0.011,-0.026 0.031,-0.048 0.059,-0.065 0.028,-0.017 0.058,-0.025 0.089,-0.025 0.025,0 0.045,0.003 0.062,0.01 v 0.114 C 0.355,-0.412 0.328,-0.417 0.305,-0.417 0.28,-0.417 0.257,-0.41 0.238,-0.397 0.218,-0.384 0.202,-0.366 0.191,-0.344 0.18,-0.321 0.174,-0.297 0.174,-0.27 V 0 h -0.11 z"
   style="fill:#676c72;fill-rule:nonzero"
   id="path887"
   inkscape:connector-curvature="0" />

                </g>
<g
   transform="matrix(31.398233,0,0,31.398233,288.57708,22.975838)"
   id="g893"
   style="opacity:1;stop-opacity:1">
                    <path
   d="M 0.289,0.016 C 0.23,0.016 0.176,-0.001 0.129,-0.036 0.082,-0.071 0.049,-0.119 0.031,-0.182 l 0.106,-0.043 c 0.011,0.039 0.03,0.071 0.057,0.096 0.027,0.026 0.059,0.038 0.097,0.038 0.035,0 0.065,-0.009 0.09,-0.028 0.025,-0.018 0.037,-0.043 0.037,-0.075 0,-0.029 -0.011,-0.054 -0.032,-0.073 C 0.364,-0.286 0.326,-0.305 0.272,-0.324 L 0.227,-0.34 C 0.179,-0.357 0.139,-0.381 0.106,-0.412 0.073,-0.443 0.057,-0.485 0.057,-0.536 c 0,-0.035 0.01,-0.068 0.029,-0.098 0.019,-0.03 0.046,-0.054 0.081,-0.072 0.034,-0.017 0.073,-0.026 0.116,-0.026 0.063,0 0.113,0.015 0.15,0.045 0.037,0.031 0.062,0.065 0.075,0.103 L 0.407,-0.541 C 0.4,-0.564 0.386,-0.584 0.365,-0.601 0.344,-0.618 0.318,-0.627 0.285,-0.627 c -0.033,0 -0.06,0.008 -0.082,0.025 -0.023,0.017 -0.034,0.038 -0.034,0.064 0,0.025 0.01,0.045 0.03,0.061 0.02,0.016 0.051,0.031 0.094,0.046 l 0.045,0.015 c 0.061,0.021 0.109,0.049 0.143,0.083 0.033,0.035 0.05,0.081 0.05,0.138 0,0.047 -0.012,0.086 -0.036,0.117 C 0.471,-0.046 0.441,-0.022 0.404,-0.007 0.367,0.008 0.328,0.016 0.289,0.016 Z"
   style="fill:#676c72;fill-rule:nonzero"
   id="path891"
   inkscape:connector-curvature="0" />

                </g>
<g
   transform="matrix(31.398233,0,0,31.398233,305.90889,22.975838)"
   id="g897"
   style="opacity:1;stop-opacity:1">
                    <path
   d="M 0.273,0.008 C 0.25,0.008 0.229,0.004 0.209,-0.003 0.189,-0.01 0.173,-0.02 0.16,-0.032 0.131,-0.061 0.117,-0.1 0.117,-0.149 V -0.413 H 0.028 V -0.51 h 0.089 v -0.144 h 0.11 v 0.144 h 0.124 v 0.097 H 0.227 v 0.24 c 0,0.027 0.005,0.047 0.016,0.058 0.01,0.013 0.027,0.02 0.052,0.02 0.011,0 0.021,-0.001 0.03,-0.005 0.009,-0.002 0.018,-0.007 0.028,-0.014 v 0.107 C 0.331,0.003 0.304,0.008 0.273,0.008 Z"
   style="fill:#676c72;fill-rule:nonzero"
   id="path895"
   inkscape:connector-curvature="0" />

                </g>
<g
   transform="matrix(31.398233,0,0,31.398233,318.22201,22.975838)"
   id="g901"
   style="opacity:1;stop-opacity:1">
                    <path
   d="M 0.25,0.016 C 0.188,0.016 0.141,-0.003 0.109,-0.04 0.076,-0.077 0.06,-0.128 0.06,-0.194 V -0.51 h 0.11 v 0.301 c 0,0.041 0.01,0.072 0.03,0.093 0.019,0.021 0.045,0.031 0.077,0.031 0.026,0 0.049,-0.007 0.069,-0.021 0.02,-0.013 0.035,-0.031 0.046,-0.054 0.011,-0.023 0.016,-0.047 0.016,-0.073 V -0.51 h 0.11 V 0 H 0.414 V -0.066 H 0.408 C 0.394,-0.042 0.372,-0.022 0.343,-0.007 0.314,0.008 0.283,0.016 0.25,0.016 Z"
   style="fill:#676c72;fill-rule:nonzero"
   id="path899"
   inkscape:connector-curvature="0" />

                </g>
<g
   transform="matrix(31.398233,0,0,31.398233,336.33752,22.975838)"
   id="g905"
   style="opacity:1;stop-opacity:1">
                    <path
   d="M 0.282,0.016 C 0.236,0.016 0.194,0.004 0.157,-0.019 0.12,-0.042 0.09,-0.075 0.069,-0.116 0.047,-0.157 0.036,-0.203 0.036,-0.255 c 0,-0.052 0.011,-0.099 0.033,-0.14 0.021,-0.041 0.051,-0.073 0.088,-0.096 0.037,-0.023 0.079,-0.035 0.125,-0.035 0.036,0 0.068,0.008 0.097,0.024 0.029,0.016 0.05,0.036 0.065,0.059 H 0.449 L 0.444,-0.515 v -0.201 h 0.11 V 0 H 0.449 V -0.066 H 0.444 C 0.429,-0.043 0.408,-0.024 0.379,-0.008 0.35,0.008 0.318,0.016 0.282,0.016 Z m 0.016,-0.101 c 0.027,0 0.051,-0.007 0.075,-0.021 0.023,-0.014 0.041,-0.034 0.055,-0.06 0.014,-0.026 0.021,-0.056 0.021,-0.089 0,-0.033 -0.007,-0.063 -0.021,-0.089 C 0.414,-0.369 0.396,-0.389 0.373,-0.403 0.349,-0.417 0.325,-0.424 0.298,-0.424 c -0.027,0 -0.052,0.007 -0.075,0.021 -0.023,0.014 -0.042,0.034 -0.056,0.059 -0.014,0.026 -0.021,0.056 -0.021,0.089 0,0.033 0.007,0.063 0.021,0.089 0.014,0.026 0.033,0.046 0.056,0.06 0.023,0.014 0.048,0.021 0.075,0.021 z"
   style="fill:#676c72;fill-rule:nonzero"
   id="path903"
   inkscape:connector-curvature="0" />

                </g>
<g
   transform="matrix(31.398233,0,0,31.398233,355.58337,22.975838)"
   id="g909"
   style="opacity:1;stop-opacity:1">
                    <path
   d="M 0.297,0.016 C 0.247,0.016 0.202,0.004 0.163,-0.019 0.123,-0.042 0.092,-0.075 0.07,-0.116 0.047,-0.157 0.036,-0.203 0.036,-0.254 c 0,-0.049 0.011,-0.094 0.033,-0.136 0.021,-0.041 0.051,-0.074 0.09,-0.099 0.039,-0.025 0.083,-0.037 0.132,-0.037 0.051,0 0.096,0.011 0.134,0.034 0.037,0.023 0.066,0.054 0.086,0.093 0.019,0.039 0.029,0.084 0.029,0.133 0,0.009 -0.001,0.021 -0.003,0.035 H 0.146 c 0.004,0.047 0.021,0.084 0.051,0.109 0.029,0.026 0.064,0.039 0.103,0.039 0.031,0 0.059,-0.007 0.082,-0.022 0.023,-0.014 0.041,-0.033 0.055,-0.058 L 0.53,-0.119 C 0.506,-0.077 0.475,-0.044 0.436,-0.02 0.397,0.004 0.351,0.016 0.297,0.016 Z M 0.428,-0.315 C 0.427,-0.333 0.421,-0.351 0.411,-0.369 0.401,-0.386 0.386,-0.401 0.366,-0.413 0.345,-0.425 0.32,-0.431 0.291,-0.431 c -0.035,0 -0.065,0.01 -0.089,0.031 -0.025,0.021 -0.042,0.05 -0.051,0.085 z"
   style="fill:#676c72;fill-rule:nonzero"
   id="path907"
   inkscape:connector-curvature="0" />

                </g>
<g
   transform="matrix(31.398233,0,0,31.398233,373.66874,22.975838)"
   id="g913"
   style="opacity:1;stop-opacity:1">
                    <path
   d="m 0.064,-0.51 h 0.105 v 0.067 h 0.005 c 0.015,-0.024 0.037,-0.044 0.066,-0.06 0.029,-0.015 0.059,-0.023 0.092,-0.023 0.062,0 0.109,0.018 0.142,0.054 0.032,0.037 0.048,0.086 0.048,0.149 V 0 h -0.11 v -0.308 c 0,-0.04 -0.01,-0.069 -0.029,-0.088 -0.02,-0.019 -0.047,-0.028 -0.082,-0.028 -0.025,0 -0.047,0.007 -0.066,0.02 C 0.216,-0.39 0.201,-0.372 0.19,-0.349 0.179,-0.326 0.174,-0.302 0.174,-0.276 V 0 h -0.11 z"
   style="fill:#676c72;fill-rule:nonzero"
   id="path911"
   inkscape:connector-curvature="0" />

                </g>
<g
   transform="matrix(31.398233,0,0,31.398233,391.1588,22.975838)"
   id="g917"
   style="opacity:1;stop-opacity:1">
                    <path
   d="M 0.273,0.008 C 0.25,0.008 0.229,0.004 0.209,-0.003 0.189,-0.01 0.173,-0.02 0.16,-0.032 0.131,-0.061 0.117,-0.1 0.117,-0.149 V -0.413 H 0.028 V -0.51 h 0.089 v -0.144 h 0.11 v 0.144 h 0.124 v 0.097 H 0.227 v 0.24 c 0,0.027 0.005,0.047 0.016,0.058 0.01,0.013 0.027,0.02 0.052,0.02 0.011,0 0.021,-0.001 0.03,-0.005 0.009,-0.002 0.018,-0.007 0.028,-0.014 v 0.107 C 0.331,0.003 0.304,0.008 0.273,0.008 Z"
   style="fill:#676c72;fill-rule:nonzero"
   id="path915"
   inkscape:connector-curvature="0" />

                </g>
<g
   transform="matrix(31.398233,0,0,31.398233,410.18611,22.975838)"
   id="g921"
   style="opacity:1;stop-opacity:1">
                    <path
   d="M 0.42,0.016 C 0.351,0.016 0.287,0 0.23,-0.033 0.173,-0.066 0.128,-0.111 0.095,-0.168 0.062,-0.225 0.046,-0.289 0.046,-0.358 c 0,-0.069 0.016,-0.133 0.049,-0.19 0.033,-0.057 0.078,-0.102 0.135,-0.135 0.057,-0.033 0.121,-0.049 0.19,-0.049 0.054,0 0.103,0.01 0.148,0.03 0.044,0.02 0.083,0.049 0.117,0.087 l -0.08,0.077 C 0.58,-0.567 0.553,-0.589 0.523,-0.604 0.493,-0.618 0.459,-0.625 0.42,-0.625 c -0.048,0 -0.092,0.011 -0.131,0.033 -0.04,0.022 -0.072,0.053 -0.095,0.093 -0.023,0.041 -0.035,0.088 -0.035,0.141 0,0.053 0.012,0.1 0.035,0.14 0.023,0.041 0.055,0.072 0.095,0.094 0.039,0.022 0.083,0.033 0.131,0.033 0.08,0 0.148,-0.033 0.204,-0.1 l 0.081,0.078 C 0.67,-0.072 0.629,-0.041 0.58,-0.018 0.531,0.005 0.478,0.016 0.42,0.016 Z"
   style="fill:#676c72;fill-rule:nonzero"
   id="path919"
   inkscape:connector-curvature="0" />

                </g>
<g
   transform="matrix(31.398233,0,0,31.398233,433.35799,22.975838)"
   id="g925"
   style="opacity:1;stop-opacity:1">
                    <rect
   x="0.064000003"
   y="-0.71600002"
   width="0.11"
   height="0.71600002"
   style="fill:#676c72;fill-rule:nonzero"
   id="rect923" />

                </g>
<g
   transform="matrix(31.398233,0,0,31.398233,440.86342,22.975838)"
   id="g929"
   style="opacity:1;stop-opacity:1">
                    <path
   d="M 0.25,0.016 C 0.188,0.016 0.141,-0.003 0.109,-0.04 0.076,-0.077 0.06,-0.128 0.06,-0.194 V -0.51 h 0.11 v 0.301 c 0,0.041 0.01,0.072 0.03,0.093 0.019,0.021 0.045,0.031 0.077,0.031 0.026,0 0.049,-0.007 0.069,-0.021 0.02,-0.013 0.035,-0.031 0.046,-0.054 0.011,-0.023 0.016,-0.047 0.016,-0.073 V -0.51 h 0.11 V 0 H 0.414 V -0.066 H 0.408 C 0.394,-0.042 0.372,-0.022 0.343,-0.007 0.314,0.008 0.283,0.016 0.25,0.016 Z"
   style="fill:#676c72;fill-rule:nonzero"
   id="path927"
   inkscape:connector-curvature="0" />

                </g>
<g
   transform="matrix(31.398233,0,0,31.398233,459.13717,22.975838)"
   id="g933"
   style="opacity:1;stop-opacity:1">
                    <path
   d="M 0.336,0.016 C 0.3,0.016 0.268,0.008 0.239,-0.008 0.21,-0.024 0.189,-0.043 0.174,-0.066 H 0.169 V 0 H 0.064 v -0.716 h 0.11 v 0.201 L 0.169,-0.443 H 0.174 C 0.189,-0.466 0.21,-0.486 0.239,-0.502 0.268,-0.518 0.3,-0.526 0.336,-0.526 c 0.046,0 0.088,0.012 0.125,0.035 0.037,0.023 0.067,0.055 0.089,0.096 0.021,0.041 0.032,0.088 0.032,0.14 0,0.052 -0.011,0.098 -0.032,0.139 C 0.528,-0.075 0.498,-0.042 0.461,-0.019 0.424,0.004 0.382,0.016 0.336,0.016 Z M 0.32,-0.085 c 0.027,0 0.052,-0.007 0.075,-0.021 0.023,-0.014 0.042,-0.034 0.056,-0.06 0.014,-0.026 0.021,-0.056 0.021,-0.089 0,-0.033 -0.007,-0.063 -0.021,-0.089 C 0.437,-0.369 0.418,-0.389 0.395,-0.403 0.372,-0.417 0.347,-0.424 0.32,-0.424 c -0.027,0 -0.051,0.007 -0.074,0.021 -0.023,0.014 -0.042,0.034 -0.056,0.059 -0.014,0.026 -0.021,0.056 -0.021,0.089 0,0.033 0.007,0.063 0.021,0.089 0.014,0.026 0.033,0.046 0.056,0.06 0.023,0.014 0.047,0.021 0.074,0.021 z"
   style="fill:#676c72;fill-rule:nonzero"
   id="path931"
   inkscape:connector-curvature="0" />

                </g>
<g
   transform="matrix(31.398233,0,0,31.398233,478.38302,22.975838)"
   id="g937"
   style="opacity:1;stop-opacity:1">
                    <path
   d="M 0.25,0.016 C 0.191,0.016 0.143,0.003 0.106,-0.023 0.069,-0.048 0.042,-0.081 0.027,-0.121 l 0.098,-0.043 c 0.012,0.027 0.029,0.047 0.051,0.061 0.021,0.014 0.046,0.021 0.074,0.021 0.027,0 0.05,-0.005 0.069,-0.015 0.019,-0.009 0.028,-0.024 0.028,-0.043 0,-0.019 -0.008,-0.033 -0.024,-0.044 C 0.307,-0.195 0.282,-0.204 0.249,-0.212 L 0.188,-0.227 C 0.147,-0.237 0.114,-0.255 0.087,-0.28 0.06,-0.305 0.047,-0.337 0.047,-0.376 c 0,-0.03 0.009,-0.056 0.027,-0.079 0.017,-0.023 0.041,-0.04 0.071,-0.053 0.03,-0.012 0.063,-0.018 0.098,-0.018 0.047,0 0.089,0.009 0.125,0.028 0.036,0.02 0.062,0.047 0.078,0.083 L 0.35,-0.373 C 0.331,-0.412 0.295,-0.432 0.244,-0.432 c -0.025,0 -0.045,0.005 -0.062,0.015 -0.017,0.01 -0.025,0.023 -0.025,0.039 0,0.015 0.006,0.028 0.019,0.037 0.013,0.01 0.031,0.018 0.056,0.025 l 0.075,0.019 c 0.05,0.013 0.088,0.032 0.114,0.057 0.025,0.026 0.038,0.058 0.038,0.095 0,0.032 -0.009,0.06 -0.027,0.084 -0.019,0.025 -0.044,0.044 -0.076,0.057 -0.032,0.013 -0.067,0.02 -0.106,0.02 z"
   style="fill:#676c72;fill-rule:nonzero"
   id="path935"
   inkscape:connector-curvature="0" />

                </g>
<g
   transform="matrix(25.581678,0,0,25.581678,131.12135,52.21385)"
   id="g941"
   style="opacity:1;stop-opacity:1">
                    <path
   d="M 0.416,0.016 C 0.347,0.016 0.284,0 0.227,-0.033 0.17,-0.066 0.126,-0.111 0.094,-0.168 0.061,-0.225 0.045,-0.288 0.045,-0.358 c 0,-0.07 0.016,-0.134 0.049,-0.191 0.032,-0.057 0.076,-0.101 0.133,-0.134 0.057,-0.033 0.12,-0.049 0.189,-0.049 0.053,0 0.102,0.01 0.147,0.03 0.044,0.021 0.082,0.05 0.115,0.087 L 0.617,-0.556 C 0.59,-0.589 0.56,-0.613 0.528,-0.628 0.495,-0.643 0.458,-0.651 0.416,-0.651 c -0.052,0 -0.1,0.012 -0.143,0.036 -0.043,0.025 -0.078,0.059 -0.103,0.103 -0.026,0.045 -0.039,0.096 -0.039,0.154 0,0.058 0.013,0.109 0.039,0.153 0.025,0.045 0.06,0.079 0.103,0.103 0.043,0.025 0.091,0.037 0.143,0.037 0.087,0 0.16,-0.036 0.221,-0.107 l 0.062,0.06 C 0.666,-0.073 0.625,-0.042 0.576,-0.019 0.527,0.005 0.474,0.016 0.416,0.016 Z"
   style="fill:#676c72;fill-rule:nonzero"
   id="path939"
   inkscape:connector-curvature="0" />

                </g>
<g
   transform="matrix(25.581678,0,0,25.581678,149.8171,52.21385)"
   id="g945"
   style="opacity:1;stop-opacity:1">
                    <path
   d="m 0.063,-0.716 h 0.085 v 0.211 l -0.004,0.07 h 0.004 c 0.014,-0.026 0.036,-0.048 0.067,-0.065 0.03,-0.017 0.063,-0.026 0.099,-0.026 0.062,0 0.109,0.018 0.142,0.054 0.033,0.037 0.049,0.085 0.049,0.145 V 0 H 0.42 v -0.314 c 0,-0.046 -0.012,-0.08 -0.035,-0.102 -0.023,-0.022 -0.054,-0.033 -0.091,-0.033 -0.027,0 -0.051,0.008 -0.073,0.024 -0.023,0.016 -0.04,0.037 -0.053,0.062 -0.013,0.025 -0.02,0.052 -0.02,0.079 V 0 H 0.063 Z"
   style="fill:#676c72;fill-rule:nonzero"
   id="path943"
   inkscape:connector-curvature="0" />

                </g>
<g
   transform="matrix(25.581678,0,0,25.581678,164.11961,52.21385)"
   id="g949"
   style="opacity:1;stop-opacity:1">
                    <path
   d="M 0.226,0.016 C 0.189,0.016 0.155,0.009 0.126,-0.006 0.097,-0.021 0.074,-0.041 0.058,-0.067 0.042,-0.092 0.034,-0.121 0.034,-0.154 c 0,-0.054 0.02,-0.096 0.061,-0.127 0.041,-0.03 0.092,-0.045 0.154,-0.045 0.031,0 0.059,0.003 0.086,0.01 0.026,0.007 0.046,0.014 0.06,0.023 v -0.031 c 0,-0.038 -0.013,-0.069 -0.04,-0.092 -0.027,-0.023 -0.06,-0.034 -0.101,-0.034 -0.029,0 -0.055,0.006 -0.079,0.018 -0.024,0.013 -0.043,0.03 -0.057,0.052 L 0.054,-0.428 c 0.02,-0.031 0.047,-0.055 0.083,-0.072 0.034,-0.017 0.073,-0.026 0.116,-0.026 0.069,0 0.124,0.018 0.164,0.054 0.039,0.037 0.059,0.086 0.059,0.149 V 0 H 0.395 V -0.073 H 0.391 C 0.376,-0.048 0.354,-0.027 0.325,-0.01 0.296,0.007 0.263,0.016 0.226,0.016 Z m 0.008,-0.075 c 0.029,0 0.055,-0.007 0.08,-0.022 C 0.339,-0.096 0.358,-0.115 0.373,-0.14 0.388,-0.165 0.395,-0.192 0.395,-0.221 0.379,-0.232 0.359,-0.24 0.336,-0.247 0.313,-0.254 0.288,-0.257 0.262,-0.257 c -0.047,0 -0.082,0.01 -0.105,0.029 -0.024,0.019 -0.036,0.044 -0.036,0.075 0,0.028 0.011,0.051 0.032,0.068 0.021,0.017 0.048,0.026 0.081,0.026 z"
   style="fill:#676c72;fill-rule:nonzero"
   id="path947"
   inkscape:connector-curvature="0" />

                </g>
<g
   transform="matrix(25.581678,0,0,25.581678,177.70624,52.21385)"
   id="g953"
   style="opacity:1;stop-opacity:1">
                    <path
   d="M 0.059,-0.51 H 0.14 v 0.076 h 0.004 c 0.015,-0.026 0.039,-0.048 0.07,-0.066 0.031,-0.017 0.065,-0.026 0.104,-0.026 0.045,0 0.087,0.012 0.124,0.035 0.037,0.023 0.067,0.056 0.088,0.097 0.021,0.041 0.032,0.088 0.032,0.139 0,0.052 -0.011,0.098 -0.032,0.139 C 0.509,-0.075 0.479,-0.042 0.442,-0.019 0.405,0.004 0.363,0.016 0.318,0.016 0.279,0.016 0.245,0.007 0.214,-0.011 0.183,-0.028 0.159,-0.05 0.144,-0.075 H 0.14 l 0.004,0.07 V 0.216 H 0.059 Z m 0.249,0.449 c 0.029,0 0.057,-0.008 0.083,-0.024 0.026,-0.016 0.047,-0.039 0.063,-0.069 0.015,-0.029 0.023,-0.063 0.023,-0.101 0,-0.038 -0.008,-0.072 -0.023,-0.102 C 0.438,-0.386 0.417,-0.409 0.391,-0.425 0.365,-0.441 0.337,-0.449 0.308,-0.449 c -0.029,0 -0.057,0.008 -0.083,0.024 -0.026,0.016 -0.047,0.039 -0.062,0.068 -0.015,0.029 -0.023,0.063 -0.023,0.102 0,0.039 0.008,0.073 0.023,0.102 0.015,0.029 0.036,0.052 0.062,0.068 0.026,0.016 0.054,0.024 0.083,0.024 z"
   style="fill:#676c72;fill-rule:nonzero"
   id="path951"
   inkscape:connector-curvature="0" />

                </g>
<g
   transform="matrix(25.581678,0,0,25.581678,192.49103,52.21385)"
   id="g957"
   style="opacity:1;stop-opacity:1">
                    <path
   d="M 0.259,0.008 C 0.238,0.008 0.219,0.005 0.202,-0.002 0.184,-0.009 0.169,-0.018 0.157,-0.029 0.144,-0.042 0.134,-0.056 0.127,-0.073 0.12,-0.09 0.117,-0.11 0.117,-0.134 V -0.433 H 0.028 V -0.51 h 0.089 v -0.144 h 0.085 v 0.144 h 0.124 v 0.077 H 0.202 v 0.278 c 0,0.028 0.005,0.049 0.016,0.062 0.013,0.015 0.031,0.022 0.055,0.022 0.019,0 0.038,-0.006 0.056,-0.017 v 0.083 C 0.319,0 0.309,0.003 0.299,0.005 0.288,0.007 0.275,0.008 0.259,0.008 Z"
   style="fill:#676c72;fill-rule:nonzero"
   id="path955"
   inkscape:connector-curvature="0" />

                </g>
<g
   transform="matrix(25.581678,0,0,25.581678,201.29257,52.21385)"
   id="g961"
   style="opacity:1;stop-opacity:1">
                    <path
   d="M 0.29,0.016 C 0.241,0.016 0.198,0.004 0.159,-0.019 0.12,-0.042 0.09,-0.075 0.069,-0.116 0.047,-0.157 0.036,-0.203 0.036,-0.254 c 0,-0.049 0.01,-0.095 0.031,-0.136 0.02,-0.041 0.049,-0.074 0.086,-0.099 0.037,-0.025 0.081,-0.037 0.13,-0.037 0.05,0 0.093,0.011 0.13,0.033 0.037,0.023 0.065,0.054 0.085,0.093 0.019,0.039 0.029,0.084 0.029,0.135 0,0.01 -0.001,0.019 -0.003,0.026 H 0.121 c 0.002,0.039 0.011,0.071 0.028,0.098 0.017,0.027 0.038,0.047 0.064,0.06 0.025,0.013 0.052,0.02 0.08,0.02 0.065,0 0.116,-0.031 0.151,-0.092 l 0.072,0.035 C 0.494,-0.077 0.464,-0.044 0.427,-0.02 0.389,0.004 0.343,0.016 0.29,0.016 Z M 0.437,-0.309 C 0.436,-0.33 0.43,-0.352 0.419,-0.373 0.408,-0.394 0.392,-0.412 0.369,-0.427 0.345,-0.442 0.317,-0.449 0.282,-0.449 c -0.04,0 -0.074,0.013 -0.101,0.038 -0.028,0.026 -0.046,0.06 -0.055,0.102 z"
   style="fill:#676c72;fill-rule:nonzero"
   id="path959"
   inkscape:connector-curvature="0" />

                </g>
<g
   transform="matrix(25.581678,0,0,25.581678,215.69305,52.21385)"
   id="g965"
   style="opacity:1;stop-opacity:1">
                    <path
   d="m 0.063,-0.51 h 0.081 v 0.082 h 0.004 c 0.01,-0.028 0.029,-0.051 0.058,-0.07 0.029,-0.018 0.059,-0.027 0.09,-0.027 0.023,0 0.043,0.003 0.06,0.01 v 0.092 C 0.335,-0.434 0.311,-0.439 0.284,-0.439 c -0.025,0 -0.047,0.007 -0.068,0.021 -0.021,0.014 -0.037,0.033 -0.049,0.056 -0.013,0.024 -0.019,0.05 -0.019,0.077 V 0 H 0.063 Z"
   style="fill:#676c72;fill-rule:nonzero"
   id="path963"
   inkscape:connector-curvature="0" />

                </g>

<g
   transform="matrix(0.19072604,0,0,0.19072604,100.47562,29.848821)"
   style="font-style:normal;font-weight:normal;font-size:135.72900000000001342px;line-height:1.25;font-family:sans-serif;clip-rule:evenodd;opacity:1;fill:#666b72;fill-opacity:0.94901961;fill-rule:nonzero;stroke:none;stroke-width:3.39321;stroke-linejoin:round;stroke-miterlimit:2;stop-opacity:1"
   id="g1097">
  <path
     inkscape:connector-curvature="0"
     d="m 735.0388,115.915 q -10.72259,0 -18.73061,-5.83634 -8.00801,-5.97208 -11.2655,-16.694671 l 10.85832,-4.479057 q 4.88624,16.016018 19.13779,16.016018 8.00801,0 12.75852,-5.564885 4.88625,-5.564889 4.88625,-14.658732 v -68.13596 h 11.53696 V 83.74723 q 0,10.179675 -3.80041,17.50904 -3.66468,7.19364 -10.3154,10.99405 -6.515,3.66468 -15.06592,3.66468 z"
     style="font-style:normal;font-variant:normal;font-weight:normal;font-stretch:normal;font-family:'Google Sans';-inkscape-font-specification:'Google Sans';fill:#666b72;fill-opacity:0.94901961;stroke-width:3.39321"
     id="path898" />
  <path
     inkscape:connector-curvature="0"
     d="m 804.02942,115.915 q -7.60082,0 -13.5729,-2.98603 -5.97207,-2.98604 -9.22957,-8.14374 -3.2575,-5.293436 -3.2575,-11.944157 0,-10.994049 8.27947,-17.101855 8.27947,-6.243534 20.90227,-6.243534 6.24353,0 11.53696,1.35729 5.42917,1.35729 8.27947,3.121767 v -4.207599 q 0,-7.736553 -5.42916,-12.351339 -5.42916,-4.750515 -13.70863,-4.750515 -5.83634,0 -10.72259,2.578851 -4.88624,2.443122 -7.73655,6.922179 l -8.68666,-6.514992 q 4.07187,-6.243534 11.12978,-9.772488 7.19364,-3.528955 15.8803,-3.528955 14.11581,0 22.12382,7.465096 8.14374,7.329366 8.14374,20.087892 v 43.840469 h -10.99405 v -9.90822 h -0.54291 q -2.98604,5.02198 -8.95812,8.55093 -5.97207,3.52895 -13.43717,3.52895 z m 1.08583,-10.17967 q 5.83635,0 10.85832,-2.98604 5.02198,-2.986038 8.00802,-8.008011 2.98603,-5.021973 2.98603,-10.994049 -3.25749,-2.171664 -8.00801,-3.528954 -4.75051,-1.35729 -10.04394,-1.35729 -9.50103,0 -14.38728,3.936141 -4.75051,3.936141 -4.75051,10.179675 0,5.700618 4.34333,9.229568 4.34332,3.52896 10.99404,3.52896 z"
     style="font-style:normal;font-variant:normal;font-weight:normal;font-stretch:normal;font-family:'Google Sans';-inkscape-font-specification:'Google Sans';fill:#666b72;fill-opacity:0.94901961;stroke-width:3.39321"
     id="path900" />
  <path
     inkscape:connector-curvature="0"
     d="m 854.01162,16.561373 h 11.53697 v 61.078051 l 32.57496,-33.117876 h 14.65873 v 0.542916 l -27.1458,27.417258 27.82444,40.718698 v 0.54292 H 899.75229 L 877.49274,80.489734 865.54859,92.433886 v 21.309454 h -11.53697 z"
     style="font-style:normal;font-variant:normal;font-weight:normal;font-stretch:normal;font-family:'Google Sans';-inkscape-font-specification:'Google Sans';fill:#666b72;fill-opacity:0.94901961;stroke-width:3.39321"
     id="path902" />
  <path
     inkscape:connector-curvature="0"
     d="m 943.46977,115.915 q -7.60083,0 -13.5729,-2.98603 -5.97208,-2.98604 -9.22957,-8.14374 -3.2575,-5.293436 -3.2575,-11.944157 0,-10.994049 8.27947,-17.101855 8.27947,-6.243534 20.90227,-6.243534 6.24353,0 11.53696,1.35729 5.42916,1.35729 8.27947,3.121767 v -4.207599 q 0,-7.736553 -5.42916,-12.351339 -5.42916,-4.750515 -13.70863,-4.750515 -5.83635,0 -10.72259,2.578851 -4.88625,2.443122 -7.73655,6.922179 l -8.68666,-6.514992 q 4.07187,-6.243534 11.12978,-9.772488 7.19364,-3.528955 15.88029,-3.528955 14.11582,0 22.12383,7.465096 8.14374,7.329366 8.14374,20.087892 v 43.840469 h -10.99405 v -9.90822 h -0.54292 q -2.98603,5.02198 -8.95811,8.55093 -5.97208,3.52895 -13.43717,3.52895 z m 1.08583,-10.17967 q 5.83635,0 10.85832,-2.98604 5.02197,-2.986038 8.00801,-8.008011 2.98604,-5.021973 2.98604,-10.994049 -3.2575,-2.171664 -8.00801,-3.528954 -4.75052,-1.35729 -10.04395,-1.35729 -9.50103,0 -14.38727,3.936141 -4.75052,3.936141 -4.75052,10.179675 0,5.700618 4.34333,9.229568 4.34333,3.52896 10.99405,3.52896 z"
     style="font-style:normal;font-variant:normal;font-weight:normal;font-stretch:normal;font-family:'Google Sans';-inkscape-font-specification:'Google Sans';fill:#666b72;fill-opacity:0.94901961;stroke-width:3.39321"
     id="path904" />
  <path
     inkscape:connector-curvature="0"
     d="m 993.45199,44.521548 h 10.99401 v 10.994049 h 0.543 q 2.4431,-6.107805 8.2794,-9.50103 5.8364,-3.393226 12.7586,-3.393226 2.986,0 5.0219,0.407188 v 11.808423 q -2.3074,-0.542916 -6.2435,-0.542916 -8.8224,0 -14.3873,5.836347 -5.4291,5.836347 -5.4291,15.201648 v 38.411309 h -11.53701 z m 78.04421,70.307622 q -4.2076,0 -7.8723,-1.35729 -3.529,-1.35729 -5.9721,-3.66468 -2.7146,-2.57885 -4.0719,-5.97208 -1.3573,-3.39322 -1.3573,-8.279467 V 54.972681 h -12.0798 V 44.521548 h 12.0798 V 24.976571 h 11.537 v 19.544977 h 16.8304 v 10.451133 h -16.8304 v 37.732663 q 0,5.700618 2.1717,8.415196 2.5788,2.98604 7.4651,2.98604 3.9361,0 7.6008,-2.30739 v 11.2655 q -2.0359,0.95011 -4.2076,1.35729 -2.0359,0.40719 -5.2934,0.40719 z"
     style="font-style:normal;font-variant:normal;font-weight:normal;font-stretch:normal;font-family:'Google Sans';-inkscape-font-specification:'Google Sans';fill:#666b72;fill-opacity:0.94901961;stroke-width:3.39321"
     id="path906" />
  <path
     inkscape:connector-curvature="0"
     d="m 1115.2518,115.915 q -7.6008,0 -13.5729,-2.98603 -5.9721,-2.98604 -9.2296,-8.14374 -3.2575,-5.293436 -3.2575,-11.944157 0,-10.994049 8.2795,-17.101855 8.2795,-6.243534 20.9022,-6.243534 6.2436,0 11.537,1.35729 5.4292,1.35729 8.2795,3.121767 v -4.207599 q 0,-7.736553 -5.4292,-12.351339 -5.4291,-4.750515 -13.7086,-4.750515 -5.8364,0 -10.7226,2.578851 -4.8862,2.443122 -7.7366,6.922179 l -8.6866,-6.514992 q 4.0719,-6.243534 11.1298,-9.772488 7.1936,-3.528955 15.8803,-3.528955 14.1158,0 22.1238,7.465096 8.1437,7.329366 8.1437,20.087892 v 43.840469 h -10.994 v -9.90822 h -0.5429 q -2.9861,5.02198 -8.9581,8.55093 -5.9721,3.52895 -13.4372,3.52895 z m 1.0858,-10.17967 q 5.8364,0 10.8583,-2.98604 5.022,-2.986038 8.008,-8.008011 2.9861,-5.021973 2.9861,-10.994049 -3.2575,-2.171664 -8.008,-3.528954 -4.7505,-1.35729 -10.044,-1.35729 -9.501,0 -14.3872,3.936141 -4.7506,3.936141 -4.7506,10.179675 0,5.700618 4.3434,9.229568 4.3433,3.52896 10.994,3.52896 z"
     style="font-style:normal;font-variant:normal;font-weight:normal;font-stretch:normal;font-family:'Google Sans';-inkscape-font-specification:'Google Sans';fill:#666b72;fill-opacity:0.94901961;stroke-width:3.39321"
     id="path908" />
</g>
</svg>
